<?xml version="1.0" encoding="UTF-8"?>
<svg version="1.1" xmlns="http://www.w3.org/2000/svg" width="2000" height="453">
<path d="M0 0 C0.97363196 0.36422562 0.97363196 0.36422562 1.96693325 0.73580933 C4.52222315 1.88648589 6.11320154 2.90996354 8 5 C9.18552973 9.73072016 8.9562302 14.4571282 8.82543945 19.29858398 C8.81503198 20.77410318 8.80831058 22.2496523 8.80499268 23.72520447 C8.79075731 26.90099445 8.75205889 30.07521424 8.6948185 33.25051689 C8.60587257 38.28298486 8.58134171 43.31451233 8.56718445 48.34767151 C8.52226638 60.85527793 8.39908923 73.36197256 8.24743652 85.86871338 C8.13021017 95.57698423 8.03774247 105.28407057 8.02135628 114.99310356 C8.01202034 119.17083834 7.98063995 123.34587842 7.89629555 127.52282524 C6.56607078 147.93418983 6.56607078 147.93418983 14.34692383 165.88574219 C16.15360455 167.73000463 18.01376121 169.33644459 20 171 C21.18673627 172.39570367 22.35020846 173.81261234 23.4609375 175.26953125 C24.43203111 176.45073509 25.40338123 177.6317281 26.375 178.8125 C55.31785414 214.3450023 72.20380169 250.1385706 68.10546875 296.95385742 C65.83718238 318.93138208 58.23318042 338.14750354 47 357 C46.4111211 358.27564977 46.4111211 358.27564977 45.81034565 359.57707024 C44 362 44 362 41.29612255 362.60013008 C39.64619541 362.58284764 39.64619541 362.58284764 37.9629364 362.56521606 C36.70009323 362.56460678 35.43725006 362.5639975 34.13613892 362.56336975 C32.73357467 362.53757212 31.33101744 362.51139031 29.9284668 362.48486328 C28.45323473 362.475308 26.9779858 362.46810759 25.50273132 362.46308899 C22.32185887 362.44814494 19.14158897 362.41832389 15.96094322 362.37762833 C10.92028188 362.31510356 5.88006955 362.29698881 0.83906555 362.28707886 C-13.49684823 362.25239571 -27.83202583 362.16357467 -42.16723633 362.01757812 C-50.08219973 361.93735751 -57.9963838 361.89720361 -65.91176289 361.89934528 C-70.09607629 361.89854898 -74.27795726 361.87692288 -78.46169472 361.80459976 C-98.91084619 360.5393407 -98.91084619 360.5393407 -116.89013672 368.35351562 C-118.73277292 370.15809103 -120.33787351 372.01602214 -122 374 C-123.39575547 375.18667535 -124.81268487 376.35011333 -126.26953125 377.4609375 C-127.45074918 378.43201397 -128.63174236 379.4033639 -129.8125 380.375 C-165.67376008 409.59300022 -201.85101932 427.1485017 -249.37109375 422.53515625 C-270.84331542 420.04481614 -289.40758315 412.97058962 -308 402 C-309.02936172 401.60179047 -310.05872345 401.20358093 -311.11927795 400.79330444 C-313.57026608 399.11951765 -313.95910038 398.21488571 -314.52263641 395.25407982 C-314.69016934 391.44311217 -314.65787056 387.65779213 -314.56665039 383.84667969 C-314.55353508 382.37455406 -314.54325036 380.9024009 -314.5355835 379.43023682 C-314.5140998 376.25851905 -314.47473897 373.08769735 -314.42222786 369.91634369 C-314.34129701 364.88768672 -314.3136789 359.85960858 -314.29576111 354.8303833 C-314.23698341 340.52906309 -314.11256017 326.22887252 -313.92163086 311.92871094 C-313.81665121 304.03094665 -313.75929373 296.1342152 -313.75183862 288.23574376 C-313.74560942 284.06210275 -313.71484958 279.89191976 -313.62370491 275.71920013 C-312.46354655 254.62200665 -312.46354655 254.62200665 -321.23217773 236.27441406 C-322.88524352 234.60809144 -324.57510658 233.04210754 -326.35331535 231.51062775 C-329.13510689 228.95868103 -331.31010837 225.95242366 -333.5625 222.9375 C-336.32281209 219.37642763 -339.11064059 215.84820034 -342 212.390625 C-362.70510916 187.48040991 -373.06739205 159.25560569 -375 127 C-375.06058594 125.9996875 -375.12117188 124.999375 -375.18359375 123.96875 C-375.96768204 94.08114935 -366.44905023 65.67357535 -350 41 C-347.41917038 40.64596558 -347.41917038 40.64596558 -344.08319092 40.67529297 C-342.19098816 40.68033089 -342.19098816 40.68033089 -340.26055908 40.68547058 C-338.85436763 40.70419047 -337.44817873 40.72310263 -336.04199219 40.7421875 C-334.56690258 40.75117608 -333.09180338 40.75869392 -331.61669922 40.7648468 C-328.43325295 40.78026032 -325.2500176 40.80412455 -322.06667328 40.83383179 C-317.0219127 40.87881067 -311.97737295 40.89258565 -306.93243408 40.8996582 C-292.58384361 40.92317915 -278.23577064 40.96332261 -263.88769531 41.09228516 C-255.96791531 41.16321478 -248.04900737 41.19445853 -240.12890744 41.18199539 C-235.94132473 41.17709678 -231.75600867 41.19221477 -227.56887054 41.25653076 C-207.10895019 42.47883585 -207.10895019 42.47883585 -189.12133789 34.65576172 C-187.27532207 32.84852185 -185.66681772 30.9858351 -184 29 C-182.5305623 27.74162608 -181.03999899 26.50652984 -179.51171875 25.3203125 C-178.23656029 24.25570986 -176.96181637 23.19061047 -175.6875 22.125 C-124.19579201 -20.42188969 -60.45950479 -35.58061783 0 0 Z M-152.08886719 30.38769531 C-155.09784803 32.92618656 -158.20299934 35.33657967 -161.3125 37.75 C-166.27292736 41.62505356 -171.1730315 45.564277 -176.03515625 49.5625 C-184.6019227 56.60553329 -193.19147631 63.61779655 -201.9375 70.4375 C-207.93863404 75.11757557 -213.81218868 79.94196679 -219.67016602 84.79956055 C-224.17968612 88.52975857 -228.74787039 92.16725029 -233.375 95.75 C-237.77062626 99.17648219 -242.07874487 102.67740388 -246.25 106.375 C-247.12140625 107.14585937 -247.9928125 107.91671875 -248.890625 108.7109375 C-253.22707748 113.41679149 -253.44498308 118.12078686 -253.3125 124.28125 C-252.69114752 129.68701662 -250.09082717 133.22135562 -246.0625 136.8125 C-240.88866977 140.50809302 -236.40424288 141.96164515 -230 141 C-224.05780633 138.79626748 -219.29088881 135.11314474 -214.5 131.0625 C-213.09649138 129.89957397 -211.69284147 128.73681843 -210.2890625 127.57421875 C-209.57911133 126.9817334 -208.86916016 126.38924805 -208.13769531 125.77880859 C-204.73876198 122.95050477 -201.30767956 120.16217203 -197.875 117.375 C-197.21048828 116.83431885 -196.54597656 116.2936377 -195.86132812 115.73657227 C-191.04327943 111.82397224 -186.1745457 107.98073491 -181.28417969 104.15917969 C-174.10866286 98.53950615 -167.06035472 92.76314122 -160 87 C-143.2378687 73.31760957 -143.2378687 73.31760957 -135.14575195 67.03173828 C-132.23736281 64.77190547 -129.36548175 62.48373773 -126.54296875 60.1171875 C-107.25257857 44.09879015 -85.86220638 39.0442022 -61 41 C-45.11438578 42.89091006 -29.82606574 50.41878328 -18 61 C-16.35 62.32 -14.7 63.64 -13 65 C-13 48.83 -13 32.66 -13 16 C-25.44198539 9.46475474 -25.44198539 9.46475474 -38.3125 5.125 C-39.00666016 4.939375 -39.70082031 4.75375 -40.41601562 4.5625 C-42.6024219 3.99439444 -44.79421083 3.48726235 -47 3 C-48.22432739 2.72071655 -48.22432739 2.72071655 -49.47338867 2.43579102 C-57.21417248 0.83289784 -64.80035346 0.65263418 -72.6875 0.6875 C-73.68153336 0.69073273 -73.68153336 0.69073273 -74.69564819 0.69403076 C-104.55784158 0.84983273 -129.57017958 11.11024809 -152.08886719 30.38769531 Z M-120 82 C-130.71089412 95.87588287 -134.91178743 111.68856978 -133 129 C-130.55665632 145.68827459 -121.20666743 157.42005995 -110.73046875 169.92675781 C-108.46814945 172.63720018 -106.23550232 175.37076017 -104.01342773 178.11425781 C-102.92231026 179.45331958 -101.82020798 180.78350589 -100.70727539 182.10449219 C-98.02306609 185.32027158 -95.67062399 188.44044159 -93.65234375 192.1171875 C-90.26514871 197.95466239 -90.26514871 197.95466239 -85 202 C-76.45825929 203.6790274 -67.60407345 202.86411068 -59 202 C-62.93204832 196.67836493 -66.98834786 191.48776446 -71.1875 186.375 C-75.78011554 180.75613091 -80.31161006 175.0979608 -84.75561523 169.36083984 C-87.28142748 166.12008888 -89.87266087 162.95631922 -92.55078125 159.83984375 C-102.96245088 147.67112753 -112.68263161 134.87223807 -112.3125 118.03125 C-111.13581268 106.61738302 -106.60099606 96.61064042 -97.8125 89.1875 C-88.31473923 82.31915286 -77.49468477 80.09824749 -66 81.625 C-51.47119639 84.42258734 -43.5385889 93.01604224 -34.90625 104.265625 C-32.1257636 107.87426166 -29.2145153 111.35441188 -26.25 114.8125 C-22.43401618 119.2656036 -18.76276434 123.79698628 -15.2421875 128.48828125 C-14.83226562 128.98714844 -14.42234375 129.48601562 -14 130 C-13.67 130 -13.34 130 -13 130 C-12.25825261 110.67335978 -14.81881366 94.68722696 -28.25 79.75 C-40.22977414 67.00870514 -55.31657775 60.3713797 -72.8125 59.6875 C-91.25130503 60.23921228 -107.87429026 68.26596214 -120 82 Z M-341.08081055 64.77099609 C-341.76314982 66.16053959 -342.40845633 67.56944273 -343 69 C-343.38365723 69.80195801 -343.76731445 70.60391602 -344.16259766 71.43017578 C-344.41058105 72.0951709 -344.65856445 72.76016602 -344.9140625 73.4453125 C-345.19878418 74.20545654 -345.48350586 74.96560059 -345.77685547 75.7487793 C-346.05674316 76.53293213 -346.33663086 77.31708496 -346.625 78.125 C-346.92422363 78.95104736 -347.22344727 79.77709473 -347.53173828 80.62817383 C-358.13022024 110.682399 -356.60068794 144.74893447 -342.890625 173.55859375 C-338.76490345 181.82806097 -334.06129994 189.00619237 -328 196 C-325.88006595 198.57055501 -323.78467294 201.16086372 -321.6875 203.75 C-321.12708008 204.43843994 -320.56666016 205.12687988 -319.98925781 205.83618164 C-315.99174824 210.75136936 -312.06384854 215.71654869 -308.16479492 220.70996094 C-304.12135016 225.87540869 -299.98178473 230.95967735 -295.83374023 236.04125977 C-292.36106518 240.30310909 -288.94173694 244.60131101 -285.5625 248.9375 C-281.46062037 254.19755741 -277.25420929 259.36249418 -273 264.5 C-268.64231906 269.76264202 -264.33558853 275.05631445 -260.125 280.4375 C-259.67801758 281.00645996 -259.23103516 281.57541992 -258.77050781 282.16162109 C-256.74979323 284.73912467 -254.75380684 287.32840254 -252.7890625 289.94921875 C-248.12767739 296.06617047 -244.40201772 299.53266076 -237 302 C-230.64826308 302.53828279 -226.27950317 301.67417245 -221 298 C-215.50130875 292.91893087 -213.83369162 287.81941666 -213.5390625 280.57421875 C-214.87390108 273.11948464 -219.76458348 267.46734278 -224.5625 261.875 C-225.82553802 260.3735046 -227.08724147 258.87088563 -228.34765625 257.3671875 C-229.27989014 256.25875488 -229.27989014 256.25875488 -230.23095703 255.12792969 C-232.71914392 252.13496296 -235.11553023 249.07578255 -237.5 246 C-241.57802177 240.75801918 -245.76369283 235.61479614 -250 230.5 C-254.71303848 224.80855537 -259.34453001 219.06675353 -263.88671875 213.23828125 C-267.36854193 208.7791042 -270.92259508 204.38275359 -274.5 200 C-279.0465895 194.42626512 -283.55534616 188.82703979 -287.96777344 183.14624023 C-290.22785928 180.23776234 -292.51611657 177.36565553 -294.8828125 174.54296875 C-309.82418148 156.54000961 -315.37416945 136.2722246 -314 113 C-311.93812425 93.30839471 -302.95124345 74.95124345 -289 61 C-295.88628745 60.79704761 -302.77180377 60.65701906 -309.66040039 60.56054688 C-312.00314144 60.52033093 -314.34568191 60.46574813 -316.68774414 60.39648438 C-320.05665514 60.29935232 -323.42291252 60.2540545 -326.79296875 60.21875 C-327.83897751 60.17745972 -328.88498627 60.13616943 -329.96269226 60.09362793 C-335.19652873 60.09040296 -338.12376301 60.16504803 -341.08081055 64.77099609 Z M-280 82 C-292.10667166 96.45705114 -295.50703207 112.60727102 -294 131 C-291.41236903 146.55677542 -282.78936809 160.40678047 -270.3359375 170.06640625 C-255.63287149 179.87551225 -239.82415759 184.06298916 -222.375 181 C-208.92477318 177.86795589 -198.2717192 171.02414197 -188 162 C-185.41315852 159.85356178 -182.80069808 157.73922189 -180.1875 155.625 C-179.51098389 155.07505371 -178.83446777 154.52510742 -178.13745117 153.95849609 C-172.46934449 149.35682719 -166.74189422 144.83390313 -160.98828125 140.33984375 C-160.00214844 139.56769531 -159.01601562 138.79554688 -158 138 C-156.68515625 137.12565308 -156.68515625 137.12565308 -155.34375 136.23364258 C-152.75620631 134.19604455 -152.75620631 134.19604455 -152.43237305 131.15917969 C-152.45855713 130.09086914 -152.48474121 129.02255859 -152.51171875 127.921875 C-152.52783203 126.76171875 -152.54394531 125.6015625 -152.56054688 124.40625 C-152.62338867 122.59640625 -152.62338867 122.59640625 -152.6875 120.75 C-152.71005859 119.52796875 -152.73261719 118.3059375 -152.75585938 117.046875 C-152.81478242 114.03001498 -152.89700735 111.01562485 -153 108 C-157.85068973 111.61878086 -162.67835742 115.26149282 -167.4375 119 C-168.0253125 119.46148437 -168.613125 119.92296875 -169.21875 120.3984375 C-174.03481957 124.19901015 -178.77349745 128.08890853 -183.5 132 C-219.30587167 161.58086707 -219.30587167 161.58086707 -240.99951172 160.20263672 C-250.19767866 159.270921 -257.62114937 154.49076029 -264 148 C-271.59754963 138.19050554 -274.27775104 127.26931394 -273 115 C-269.44520937 97.96662825 -258.03205182 89.17029351 -245 79 C-243.67538772 77.95753109 -242.35114898 76.91458731 -241.02734375 75.87109375 C-239.23294727 74.45914434 -237.43743156 73.04876067 -235.63793945 71.64331055 C-231.65653149 68.53307439 -227.74679382 65.38995632 -224 62 C-224 61.67 -224 61.34 -224 61 C-246.09307738 59.94235268 -264.55952939 65.61967466 -280 82 Z M-89.87109375 110.31640625 C-92.99502876 114.9752851 -92.70751232 120.64413174 -92 126 C-88.84743428 134.23026379 -82.0160377 140.91269757 -76.3046875 147.48193359 C-73.85799803 150.328774 -71.54598634 153.28131682 -69.21484375 156.22265625 C-66.39900085 159.75363386 -63.54186761 163.2501495 -60.6875 166.75 C-56.11935897 172.35742922 -51.61598676 178.00944026 -47.16479492 183.70996094 C-43.66277027 188.18375159 -40.09214568 192.59835671 -36.5 197 C-31.99335855 202.52222262 -27.54385134 208.082404 -23.1706543 213.7109375 C-20.73549825 216.83358909 -18.25603551 219.90681163 -15.70703125 222.9375 C0.85486451 242.67979433 9.74819248 262.77084694 8 289 C6.00148793 307.64383747 -1.1934622 324.43654177 -14.1796875 338.0390625 C-16.05412027 339.87428048 -16.05412027 339.87428048 -17 342 C-0.83 342 15.34 342 32 342 C47.98044544 310.03910912 53.33753218 277.40719634 42.17993164 242.85351562 C35.55124987 223.75984795 23.61594217 208.47561988 10.79638672 193.15527344 C0.7238996 181.07047916 -9.31535408 168.85657771 -18.5625 156.125 C-19.366875 155.09375 -20.17125 154.0625 -21 153 C-21.66 153 -22.32 153 -23 153 C-23.25910156 152.25621094 -23.51820313 151.51242188 -23.78515625 150.74609375 C-25.03842927 147.91313255 -26.31385238 146.29210925 -28.4375 144.0625 C-31.85232654 140.34113606 -35.03255177 136.49014692 -38.125 132.5 C-42.46290785 126.93150187 -46.85449773 121.41045693 -51.3125 115.9375 C-51.88693848 115.22335938 -52.46137695 114.50921875 -53.05322266 113.7734375 C-57.42483824 108.43274458 -62.07466531 102.81377813 -69 101 C-78.21579325 100.09352853 -84.07144711 103.22092576 -89.87109375 110.31640625 Z M-154.0625 160.6875 C-155.13636963 161.56402222 -155.13636963 161.56402222 -156.23193359 162.45825195 C-159.87273853 165.43068695 -163.50374192 168.41477032 -167.12890625 171.40625 C-173.50558752 176.65257245 -179.91911048 181.80283782 -186.625 186.625 C-187.18074707 187.02678467 -187.73649414 187.42856934 -188.30908203 187.8425293 C-191.7275682 190.25793366 -195.21628602 192.2160868 -199 194 C-198.50846788 198.32966587 -195.70660015 200.99873006 -192.9375 204.125 C-191.92477248 205.29470028 -190.91306016 206.46528027 -189.90234375 207.63671875 C-189.40460449 208.21083496 -188.90686523 208.78495117 -188.39404297 209.37646484 C-185.87997949 212.30440217 -183.48502724 215.32326468 -181.09375 218.3515625 C-179.52364484 220.33762835 -177.94006021 222.3086608 -176.34375 224.2734375 C-170.23057316 231.85284718 -164.88701459 239.5702499 -160 248 C-155.01216908 244.82805127 -150.52824602 241.2297316 -146 237.4375 C-117.26846734 213.59378802 -117.26846734 213.59378802 -107 209 C-108.45805762 204.46661395 -111.02244819 201.32264811 -114.125 197.8125 C-115.13115848 196.64795566 -116.13636139 195.48258506 -117.140625 194.31640625 C-117.63240234 193.74809082 -118.12417969 193.17977539 -118.63085938 192.59423828 C-121.87049336 188.82198259 -124.93817736 184.91678184 -128 181 C-128.50354004 180.35981934 -129.00708008 179.71963867 -129.52587891 179.06005859 C-131.25388847 176.85826424 -132.97163112 174.64876536 -134.6875 172.4375 C-135.2345459 171.74108398 -135.7815918 171.04466797 -136.34521484 170.32714844 C-140.09215717 165.4658187 -143.16320391 160.4408335 -146 155 C-148.59094136 155 -152.01658202 159.00541181 -154.0625 160.6875 Z M-247 201 C-243.28605656 205.98333725 -239.53297424 210.92991729 -235.6875 215.8125 C-235.2116748 216.41723145 -234.73584961 217.02196289 -234.24560547 217.64501953 C-229.41142778 223.77219024 -224.47167606 229.81151834 -219.49121094 235.8203125 C-192.4872223 268.42645152 -192.4872223 268.42645152 -194 287 C-195.66311211 297.58472198 -199.79020994 305.96303709 -208 313 C-217.87801237 320.12582318 -227.83918919 323.01203223 -240 321.375 C-253.12147491 318.83481704 -261.6917881 311.30843944 -269.66796875 301.00390625 C-272.553405 297.28715504 -275.5248655 293.64506048 -278.5 290 C-282.9183846 284.57868092 -287.29797711 279.13199562 -291.609375 273.625 C-292.06828125 273.08875 -292.5271875 272.5525 -293 272 C-293.33 272 -293.66 272 -294 272 C-294.64659083 291.61325508 -290.60744961 308.44048501 -277.75 323.6640625 C-265.90533934 336.23003262 -250.62116532 342.58267319 -233.4375 343.25 C-215.83933836 342.95714103 -200.03100098 335.30507204 -187.85546875 322.796875 C-175.96336488 309.06297301 -171.84283871 292.89008091 -173 275 C-175.14175555 259.19780362 -183.12041417 247.92043924 -193 236 C-193.74378906 235.08605469 -194.48757812 234.17210937 -195.25390625 233.23046875 C-196.67930102 231.47956947 -198.10906467 229.73221864 -199.54296875 227.98828125 C-202.60003632 224.27022609 -205.6462856 220.54352771 -208.6875 216.8125 C-209.2222998 216.15910645 -209.75709961 215.50571289 -210.30810547 214.83251953 C-210.82904785 214.1929834 -211.34999023 213.55344727 -211.88671875 212.89453125 C-212.41362305 212.26305176 -212.94052734 211.63157227 -213.48339844 210.98095703 C-215 209 -215 209 -216.25878906 206.74951172 C-217.67086317 204.35238065 -218.81000415 202.72894409 -221 201 C-225.49698327 200.02630175 -229.80140338 200.24233258 -234.375 200.5 C-235.58800781 200.53609375 -236.80101562 200.5721875 -238.05078125 200.609375 C-241.03710076 200.70343231 -244.01691402 200.83473208 -247 201 Z M-121.08154297 243.38037109 C-124.04789737 245.88467182 -127.11615796 248.25167074 -130.1875 250.625 C-135.51865527 254.7730603 -140.70674782 259.06744623 -145.8269043 263.47314453 C-148.15655957 265.472756 -150.44030502 267.29353668 -153 269 C-153.41737872 271.71483594 -153.41737872 271.71483594 -153.29296875 274.8828125 C-153.28330078 276.04941406 -153.27363281 277.21601563 -153.26367188 278.41796875 C-153.23853516 279.64128906 -153.21339844 280.86460937 -153.1875 282.125 C-153.17396484 283.35605469 -153.16042969 284.58710938 -153.14648438 285.85546875 C-153.11103543 288.90407843 -153.06162079 291.951825 -153 295 C-147.59496171 291.00668533 -142.32213015 286.88460864 -137.125 282.625 C-135.71117197 281.47106683 -134.29711035 280.31741979 -132.8828125 279.1640625 C-132.21024414 278.61524414 -131.53767578 278.06642578 -130.84472656 277.50097656 C-127.81001924 275.03176261 -124.74904075 272.59594289 -121.6875 270.16015625 C-119.50972081 268.40970292 -117.34585268 266.64530602 -115.1875 264.87109375 C-85.86845814 240.78821226 -85.86845814 240.78821226 -64.9921875 242.70898438 C-59.85524216 243.45938129 -55.47231396 245.45213629 -51 248 C-50.25234375 248.4228125 -49.5046875 248.845625 -48.734375 249.28125 C-40.45957346 254.71356246 -35.58783026 263.76948022 -33.4375 273.2578125 C-31.55572761 285.05249299 -33.84413763 295.8882824 -40.625 305.8125 C-44.81125091 311.14115271 -49.60898268 314.95851271 -55 319 C-57.66298419 321.12484982 -60.29987514 323.2812973 -62.9375 325.4375 C-64.31096674 326.55627345 -65.68466199 327.67476643 -67.05859375 328.79296875 C-67.7222998 329.33356934 -68.38600586 329.87416992 -69.06982422 330.43115234 C-70.86725861 331.89210775 -72.66902316 333.34749038 -74.47265625 334.80078125 C-75.97119141 336.01314453 -75.97119141 336.01314453 -77.5 337.25 C-78.3765625 337.95640625 -79.253125 338.6628125 -80.15625 339.390625 C-80.7646875 339.92171875 -81.373125 340.4528125 -82 341 C-82 341.33 -82 341.66 -82 342 C-62.62303301 342.92762076 -45.62013673 339.08609143 -30.6875 325.875 C-19.71492536 315.60469866 -12.60611585 301.29473575 -11.796875 286.21484375 C-11.46009901 267.97565303 -16.2036895 252.52943246 -29 239 C-40.84579853 227.57990986 -55.4898806 221.27351533 -72 220.625 C-91.93681775 221.46923007 -106.43222327 230.81807776 -121.08154297 243.38037109 Z M-91.625 272.0625 C-93.02649757 273.22628019 -94.42885759 274.38902248 -95.83203125 275.55078125 C-96.52893066 276.13037598 -97.22583008 276.7099707 -97.94384766 277.30712891 C-101.02408694 279.84315113 -104.16454842 282.29891986 -107.3125 284.75 C-112.27225853 288.62593386 -117.17300431 292.56425465 -122.03515625 296.5625 C-131.18114678 304.08173332 -140.37001078 311.5407474 -149.70141602 318.82885742 C-154.25959176 322.39739093 -158.76143854 326.0319054 -163.25 329.6875 C-163.93102783 330.24147461 -164.61205566 330.79544922 -165.3137207 331.36621094 C-168.14005154 333.66641631 -170.96335647 335.96985026 -173.77734375 338.28515625 C-195.72132736 356.17465991 -216.51486423 363.82211825 -245 362 C-263.25860922 359.64779746 -281.05296425 349.94703575 -294 337 C-294.20295239 343.88628745 -294.34298094 350.77180377 -294.43945312 357.66040039 C-294.47966907 360.00314144 -294.53425187 362.34568191 -294.60351562 364.68774414 C-294.70064768 368.05665514 -294.7459455 371.42291252 -294.78125 374.79296875 C-294.82254028 375.83897751 -294.86383057 376.88498627 -294.90637207 377.96269226 C-295.02832271 383.36532892 -295.02832271 383.36532892 -292.2875824 387.74598694 C-290.23387176 389.05453324 -288.24410721 390.06150351 -286 391 C-284.28490234 391.82177734 -284.28490234 391.82177734 -282.53515625 392.66015625 C-258.26438367 402.46128938 -228.46992425 406.70494284 -203 399 C-201.95875977 398.70198486 -201.95875977 398.70198486 -200.89648438 398.39794922 C-179.80332288 392.30284736 -164.16352779 381.18381433 -147.4206543 367.29663086 C-142.42232446 363.15187825 -137.3602818 359.10469214 -132.23876953 355.11376953 C-127.77955224 351.63163608 -123.38278775 348.07772174 -119 344.5 C-114.06057385 340.46788772 -109.0916551 336.48209143 -104.0625 332.5625 C-98.11764549 327.9232355 -92.28664101 323.15486435 -86.47705078 318.34765625 C-82.17585056 314.78884962 -77.85717142 311.25368427 -73.51586914 307.74389648 C-70.89224286 305.62138806 -68.2758355 303.49015182 -65.66210938 301.35546875 C-64.22114575 300.18034683 -62.77508909 299.0114754 -61.328125 297.84375 C-56.63917297 293.9419943 -53.51073445 290.77247037 -52.65625 284.4609375 C-52.28052547 277.64153723 -53.53750383 273.18581285 -58 268 C-62.31013179 263.80038441 -66.4400804 262.28443551 -72.375 261.625 C-80.12044564 262.426253 -85.84621858 267.16544901 -91.625 272.0625 Z " fill="#276396" transform="translate(394,25)"/>
<path d="M0 0 C2.61910994 3.4461973 2.58298425 7.8298425 3 12 C5.95152084 12 7.44846174 10.46184267 9.875 8.8125 C23.44924184 -0.00449766 38.20184701 -3.71147309 54.2265625 -0.31640625 C61.02509286 2.21988758 66.73954995 6.28760045 70.3125 12.6875 C74.45614776 22.45007436 74.27397148 32.85126251 74.24382973 43.27029037 C74.23816702 45.79307586 74.24750365 48.31541346 74.2610321 50.83816528 C74.29789723 58.0018345 74.31664965 65.16533973 74.30541992 72.32910156 C74.29956842 76.73163419 74.31781391 81.13352196 74.35130882 85.535923 C74.35924921 87.20642418 74.35800427 88.87699588 74.34728432 90.54748154 C74.33294963 92.87856265 74.34922622 95.20760565 74.37231445 97.53857422 C74.36054672 98.22332321 74.34877899 98.9080722 74.33665466 99.61357117 C74.41012039 103.39950279 74.93154551 104.91645946 77.3634491 107.88430786 C79.88434313 109.9071915 81.93405719 111.03641797 85 112 C85 112.99 85 113.98 85 115 C66.52 115 48.04 115 29 115 C29.495 113.02 29.495 113.02 30 111 C32 110 34 109 36 108 C39.2467342 103.91129809 39.4301245 100.13883629 39.38818359 95.10791016 C39.39344055 94.32838486 39.39869751 93.54885956 39.40411377 92.74571228 C39.41728413 90.1766233 39.40858467 87.60815747 39.3984375 85.0390625 C39.4004595 83.24693687 39.40337199 81.45481203 39.40713501 79.66268921 C39.41155469 75.90850991 39.40514031 72.15454497 39.39111328 68.40039062 C39.3740463 63.59979435 39.38384899 58.7997022 39.40183067 53.99912453 C39.41269925 50.29810832 39.40920767 46.59721052 39.4014473 42.89619064 C39.3994525 41.12684443 39.40187916 39.3574873 39.40888596 37.58815384 C39.41654842 35.108775 39.40482878 32.63019838 39.38818359 30.15087891 C39.39425629 29.42649124 39.40032898 28.70210358 39.40658569 27.95576477 C39.34354803 22.85920761 38.38513568 19.42069309 36 15 C31.2896052 12.19188002 27.42468115 11.35639376 22 12 C15.48354019 13.95809616 10.40483208 16.94637594 5 21 C4.34 21 3.68 21 3 21 C3.08449437 31.44031602 3.17941309 41.88048077 3.28752708 52.32058048 C3.33740723 57.16868813 3.38373791 62.01677486 3.421875 66.86499023 C3.45883252 71.54647637 3.50522069 76.22778392 3.55806351 80.90911674 C3.57655192 82.69238581 3.59168024 84.47569309 3.60334396 86.25901985 C3.62030178 88.76278983 3.64935908 91.26615576 3.68115234 93.76977539 C3.68331253 94.50201828 3.68547272 95.23426117 3.68769836 95.98869324 C3.76403312 100.71483713 4.33112836 104.60967544 6 109 C8.92583694 110.47562227 8.92583694 110.47562227 12 111 C12.99 111.495 12.99 111.495 14 112 C14 112.99 14 113.98 14 115 C-4.48 115 -22.96 115 -42 115 C-42 114.01 -42 113.02 -42 112 C-41.44570312 111.74605469 -40.89140625 111.49210937 -40.3203125 111.23046875 C-39.59585937 110.88628906 -38.87140625 110.54210937 -38.125 110.1875 C-37.40570312 109.85105469 -36.68640625 109.51460938 -35.9453125 109.16796875 C-33.69457194 108.00532903 -33.69457194 108.00532903 -32 105 C-31.79539036 102.33371196 -31.7062877 99.77100263 -31.70947266 97.10375977 C-31.70275543 96.3002005 -31.69603821 95.49664124 -31.68911743 94.66873169 C-31.67010264 92.00956051 -31.66621162 89.3506412 -31.6640625 86.69140625 C-31.65763743 84.84439489 -31.65090929 82.99738456 -31.64389038 81.15037537 C-31.63190922 77.27755371 -31.62821046 73.40482131 -31.62939453 69.53198242 C-31.62959787 64.56730513 -31.60228434 59.60319934 -31.56785011 54.63865757 C-31.54562328 50.82367824 -31.54155568 47.00883743 -31.54261398 43.19379997 C-31.5402521 41.36334194 -31.53139562 39.53288042 -31.51594925 37.70248604 C-31.49637236 35.14312716 -31.50209381 32.58501331 -31.51416016 30.02563477 C-31.50292114 29.26861771 -31.49168213 28.51160065 -31.48010254 27.73164368 C-31.52139084 24.28870519 -31.72720648 22.36180735 -33.82723999 19.57652283 C-36.42911789 17.68863835 -38.91252728 16.84203802 -42 16 C-42 14.68 -42 13.36 -42 12 C-36.66611928 10.11671577 -31.3276272 8.24739833 -25.984375 6.39086914 C-24.16728298 5.75732054 -22.35151107 5.11997246 -20.53710938 4.47875977 C-17.92916013 3.55784552 -15.31677179 2.65069076 -12.703125 1.74609375 C-11.89256653 1.45657333 -11.08200806 1.16705292 -10.24688721 0.86875916 C-9.48640076 0.60841385 -8.72591431 0.34806854 -7.94238281 0.07983398 C-7.27619934 -0.15333023 -6.61001587 -0.38649445 -5.92364502 -0.62672424 C-3.61911364 -1.0739095 -2.19435056 -0.79852686 0 0 Z " fill="#3E71AE" transform="translate(1265,181)"/>
<path d="M0 0 C2.10932879 3.77458835 2.49989894 7.74914099 3 12 C5.95152084 12 7.44846174 10.46184267 9.875 8.8125 C23.17216027 0.17547759 35.42080222 -2.27260012 51 -1 C58.07539578 0.55912913 64.08981081 3.9873436 68.40234375 9.93359375 C74.67494349 20.13338637 74.27735841 31.6805087 74.24382973 43.27029037 C74.23816702 45.79307586 74.24750365 48.31541346 74.2610321 50.83816528 C74.29789723 58.0018345 74.31664965 65.16533973 74.30541992 72.32910156 C74.29956842 76.73163419 74.31781391 81.13352196 74.35130882 85.535923 C74.35924921 87.20642418 74.35800427 88.87699588 74.34728432 90.54748154 C74.33294963 92.87856265 74.34922622 95.20760565 74.37231445 97.53857422 C74.36054672 98.22332321 74.34877899 98.9080722 74.33665466 99.61357117 C74.41012039 103.39950279 74.93154551 104.91645946 77.3634491 107.88430786 C79.88434313 109.9071915 81.93405719 111.03641797 85 112 C85 112.99 85 113.98 85 115 C66.52 115 48.04 115 29 115 C29.495 113.02 29.495 113.02 30 111 C32 110 34 109 36 108 C39.2467342 103.91129809 39.4301245 100.13883629 39.38818359 95.10791016 C39.39344055 94.32838486 39.39869751 93.54885956 39.40411377 92.74571228 C39.41728413 90.1766233 39.40858467 87.60815747 39.3984375 85.0390625 C39.4004595 83.24693687 39.40337199 81.45481203 39.40713501 79.66268921 C39.41155469 75.90850991 39.40514031 72.15454497 39.39111328 68.40039062 C39.3740463 63.59979435 39.38384899 58.7997022 39.40183067 53.99912453 C39.41269925 50.29810832 39.40920767 46.59721052 39.4014473 42.89619064 C39.3994525 41.12684443 39.40187916 39.3574873 39.40888596 37.58815384 C39.41654842 35.108775 39.40482878 32.63019838 39.38818359 30.15087891 C39.39425629 29.42649124 39.40032898 28.70210358 39.40658569 27.95576477 C39.34354803 22.85920761 38.38513568 19.42069309 36 15 C31.2896052 12.19188002 27.42468115 11.35639376 22 12 C15.48354019 13.95809616 10.40483208 16.94637594 5 21 C4.34 21 3.68 21 3 21 C3.08449437 31.44031602 3.17941309 41.88048077 3.28752708 52.32058048 C3.33740723 57.16868813 3.38373791 62.01677486 3.421875 66.86499023 C3.45883252 71.54647637 3.50522069 76.22778392 3.55806351 80.90911674 C3.57655192 82.69238581 3.59168024 84.47569309 3.60334396 86.25901985 C3.62030178 88.76278983 3.64935908 91.26615576 3.68115234 93.76977539 C3.68331253 94.50201828 3.68547272 95.23426117 3.68769836 95.98869324 C3.76403312 100.71483713 4.33112836 104.60967544 6 109 C8.92583694 110.47562227 8.92583694 110.47562227 12 111 C12.99 111.495 12.99 111.495 14 112 C14 112.99 14 113.98 14 115 C-4.48 115 -22.96 115 -42 115 C-42 114.01 -42 113.02 -42 112 C-41.44570312 111.75765625 -40.89140625 111.5153125 -40.3203125 111.265625 C-39.23363281 110.76289063 -39.23363281 110.76289063 -38.125 110.25 C-37.04605469 109.76273438 -37.04605469 109.76273438 -35.9453125 109.265625 C-33.48892177 107.66749127 -33.02266015 106.75549807 -32 104 C-31.79953777 101.32607226 -31.70622436 98.75591843 -31.70947266 96.08203125 C-31.70275543 95.28807953 -31.69603821 94.49412781 -31.68911743 93.67611694 C-31.67013808 91.05484746 -31.66621365 88.43383389 -31.6640625 85.8125 C-31.65763581 83.98933812 -31.65090754 82.16617728 -31.64389038 80.34301758 C-31.63191871 76.5232504 -31.62820957 72.70357367 -31.62939453 68.88378906 C-31.62959801 63.98751876 -31.60226584 59.09182701 -31.56785011 54.19569397 C-31.54562483 50.43132864 -31.5415556 46.66710368 -31.54261398 42.90267944 C-31.54025258 41.09734091 -31.5313988 39.29199882 -31.51594925 37.48672485 C-31.49637207 34.9633919 -31.50209344 32.44132165 -31.51416016 29.91796875 C-31.50292114 29.17187347 -31.49168213 28.4257782 -31.48010254 27.65707397 C-31.52170086 24.23717276 -31.73802986 22.3464875 -33.82723999 19.58325195 C-36.42846678 17.6877838 -38.90896229 16.84301029 -42 16 C-42 14.68 -42 13.36 -42 12 C-36.66611928 10.11671577 -31.3276272 8.24739833 -25.984375 6.39086914 C-24.16728298 5.75732054 -22.35151107 5.11997246 -20.53710938 4.47875977 C-17.92916013 3.55784552 -15.31677179 2.65069076 -12.703125 1.74609375 C-11.89256653 1.45657333 -11.08200806 1.16705292 -10.24688721 0.86875916 C-9.48640076 0.60841385 -8.72591431 0.34806854 -7.94238281 0.07983398 C-7.27619934 -0.15333023 -6.61001587 -0.38649445 -5.92364502 -0.62672424 C-3.60624894 -1.07640585 -2.19634295 -0.84149631 0 0 Z " fill="#000000" transform="translate(1586,181)"/>
<path d="M0 0 C1.05026367 0.00829834 2.10052734 0.01659668 3.18261719 0.02514648 C18.12554266 0.3490405 31.39273861 4.78376956 42.5 15.1875 C54.85502196 28.51859438 59.43536254 44.5997294 59.1875 62.44140625 C58.36497015 79.14904379 53.59072694 93.83198577 41.8359375 106.1484375 C28.01097675 118.09744488 11.10926587 121.57476742 -6.8125 120.4375 C-21.77594258 118.76808829 -35.86463888 113.07787916 -45.8125 101.4375 C-57.57107179 84.73869492 -60.60370106 65.54143509 -57.59375 45.515625 C-55.01101475 30.85722868 -46.89841685 18.13020991 -34.8125 9.4375 C-23.77126369 2.78250825 -12.84139438 -0.13173321 0 0 Z M-15.69067383 13.70263672 C-17.58520012 16.63245258 -18.33542137 19.82476134 -19.0625 23.1875 C-19.22234375 23.83976562 -19.3821875 24.49203125 -19.546875 25.1640625 C-22.04555287 35.86673272 -21.99886507 46.67505242 -21.99780273 57.60327148 C-21.99998016 60.10222656 -22.01816544 62.60073251 -22.03710938 65.09960938 C-22.40235301 88.85232433 -22.40235301 88.85232433 -13.2421875 110.03125 C-9.20033159 114.00684598 -4.80830591 114.64441711 0.625 114.9375 C6.2856559 114.73561104 10.13407513 113.45399161 14.1875 109.4375 C24.4328656 96.73110663 22.46624797 75.57171303 22.5 60.1875 C22.50367584 59.38147339 22.50735168 58.57544678 22.51113892 57.74499512 C23.22206943 32.16362701 23.22206943 32.16362701 13.3125 9.8125 C8.51363141 6.16535988 4.34104691 4.93925573 -1.73046875 5.125 C-7.71351543 6.02301826 -11.94441669 9.01856536 -15.69067383 13.70263672 Z " fill="#3E71AE" transform="translate(1051.8125,179.5625)"/>
<path d="M0 0 C7.44136562 6.7799109 11.60293702 16.82862758 12.07835388 26.79699707 C12.08786575 27.92553101 12.09737762 29.05406494 12.10717773 30.21679688 C12.12066757 31.50162964 12.13415741 32.7864624 12.14805603 34.11022949 C12.15311598 34.7916954 12.15817593 35.47316132 12.16338921 36.17527771 C12.17989131 38.31945108 12.20313044 40.46345564 12.22828674 42.60754395 C12.2988221 48.70100408 12.35919728 54.79453072 12.41040039 60.88818359 C12.44224776 64.62230802 12.48352983 68.3562326 12.53059578 72.0901947 C12.54657178 73.5094798 12.55891361 74.92881077 12.56750298 76.34815979 C12.57970092 78.33439402 12.6048899 80.32053553 12.63061523 82.30664062 C12.64607643 83.99944153 12.64607643 83.99944153 12.66184998 85.72644043 C12.93799583 88.81088834 13.54566306 91.00422571 14.93359375 93.76171875 C17.72294777 95.70473031 20.33855169 96.09156798 23.68359375 96.38671875 C24.88242188 96.49886719 24.88242188 96.49886719 26.10546875 96.61328125 C27.01039062 96.68675781 27.01039062 96.68675781 27.93359375 96.76171875 C28.26359375 98.08171875 28.59359375 99.40171875 28.93359375 100.76171875 C27.75684567 101.87733706 26.56650108 102.97861773 25.37109375 104.07421875 C24.37916016 104.99654297 24.37916016 104.99654297 23.3671875 105.9375 C17.58407228 110.27251575 12.13013071 111.32040597 5.12109375 111.26171875 C4.32936768 111.25599854 3.5376416 111.25027832 2.72192383 111.24438477 C-3.72162804 111.04824508 -8.95743684 109.93421719 -14.06640625 105.76171875 C-16.12969734 103.51130341 -17.49098147 101.42024806 -19.06640625 98.76171875 C-19.72640625 97.77171875 -20.38640625 96.78171875 -21.06640625 95.76171875 C-21.44410156 96.18582031 -21.82179688 96.60992187 -22.2109375 97.046875 C-30.89523149 106.3006309 -40.1144768 111.59077481 -52.75390625 112.13671875 C-62.97070956 111.90451867 -71.88297808 109.23351691 -79.2578125 101.98046875 C-84.73893224 95.25633049 -86.63642913 87.31206196 -86.06640625 78.76171875 C-84.20446483 69.28119136 -78.22200079 62.6328871 -70.44140625 57.1953125 C-55.7716094 48.34035289 -37.96423107 45.09927137 -21.06640625 43.76171875 C-21.14842744 39.34435647 -21.26116139 34.92826178 -21.37890625 30.51171875 C-21.40146484 29.27679688 -21.42402344 28.041875 -21.44726562 26.76953125 C-21.59631798 13.75032766 -21.59631798 13.75032766 -26.37548828 1.95141602 C-29.5909205 -0.99406192 -32.75890243 -2.23828125 -37.06640625 -2.23828125 C-40.73078289 -1.12033584 -43.238001 -0.28092924 -45.65234375 2.7578125 C-47.98242065 7.70761675 -48.56371779 13.00084375 -49.43945312 18.36914062 C-50.58587422 24.77278983 -52.10285328 29.45131726 -57.44140625 33.61328125 C-60.50124939 34.95196262 -62.73424459 35.16221999 -66.06640625 35.13671875 C-67.07703125 35.14445312 -68.08765625 35.1521875 -69.12890625 35.16015625 C-73.62166336 34.55076632 -76.09711487 33.02370643 -78.8515625 29.4375 C-81.25660452 24.14022096 -80.91518268 18.0606298 -79.48046875 12.484375 C-75.55616125 3.39366266 -67.17797244 -1.68004225 -58.3515625 -5.23046875 C-40.00202907 -10.85969541 -16.12045822 -11.7427925 0 0 Z M-47.06640625 59.76171875 C-52.29729119 65.4055683 -53.93076894 71.19069082 -54.06640625 78.76171875 C-53.55276073 85.58749697 -51.209886 90.23391738 -46.06640625 94.76171875 C-42.59462486 96.95442278 -39.46327305 97.12962502 -35.3984375 96.515625 C-30.34394252 94.88159228 -24.84099755 91.53631005 -21.06640625 87.76171875 C-20.97778633 84.95008495 -20.9511827 82.1631362 -20.96875 79.3515625 C-20.97016495 78.50952774 -20.9715799 77.66749298 -20.97303772 76.79994202 C-20.97865362 74.0996654 -20.99120877 71.39947047 -21.00390625 68.69921875 C-21.0089192 66.87304807 -21.01348246 65.04687609 -21.01757812 63.22070312 C-21.02862821 58.73434333 -21.04590346 54.24804491 -21.06640625 49.76171875 C-31.01913226 49.61507605 -39.76611079 52.95516308 -47.06640625 59.76171875 Z " fill="#3E71AE" transform="translate(1511.06640625,188.23828125)"/>
<path d="M0 0 C1.21631586 1.02938731 2.40573534 2.09161769 3.5625 3.1875 C4.11550781 3.70054687 4.66851563 4.21359375 5.23828125 4.7421875 C12.67654923 12.45731409 14.65940578 23.28665081 14.72021484 33.66430664 C14.73047699 34.92904312 14.74073914 36.1937796 14.75131226 37.49684143 C14.75475018 38.16500948 14.7581881 38.83317753 14.76173019 39.52159309 C14.77360889 41.62804876 14.79308048 43.73430755 14.81484985 45.84068298 C14.87618884 51.8257695 14.93055734 57.81082878 14.96386719 63.79614258 C14.98483702 67.4666555 15.02014639 71.13679646 15.06462479 74.80709648 C15.07875338 76.20125386 15.08750013 77.59547689 15.09067917 78.98970222 C15.0955999 80.93991174 15.12038909 82.89004029 15.14599609 84.84008789 C15.15408295 85.94784073 15.1621698 87.05559357 15.17050171 88.19691467 C15.61486621 91.58700585 16.49044818 93.48394481 18.5625 96.1875 C21.49681011 97.21929109 21.49681011 97.21929109 24.75 97.5 C25.83667969 97.64050781 26.92335938 97.78101563 28.04296875 97.92578125 C29.29013672 98.05533203 29.29013672 98.05533203 30.5625 98.1875 C30.5625 102.1875 30.5625 102.1875 28.4375 104.6875 C21.30261612 110.89174685 16.51748272 112.3734206 7.25 112.4375 C6.51587891 112.458125 5.78175781 112.47875 5.02539062 112.5 C-3.00763571 112.55702237 -8.61739027 109.87827396 -14.4375 104.1875 C-15.96658762 101.91043763 -17.18754165 99.63934138 -18.4375 97.1875 C-19.11554688 97.85136719 -19.79359375 98.51523437 -20.4921875 99.19921875 C-30.36106505 108.5623505 -39.17391531 113.65867692 -53.1171875 113.453125 C-63.01396525 112.66138278 -70.40268888 109.47439218 -77.47265625 102.49609375 C-80.09189013 99.41862413 -81.31827196 97.06749052 -82.4375 93.1875 C-82.7778125 92.0428125 -82.7778125 92.0428125 -83.125 90.875 C-84.2792844 80.94815419 -82.93872394 74.28928345 -77.25 66 C-63.7099972 52.4599972 -39.69344617 45.38036221 -20.72119141 45.15527344 C-19.59076416 45.17122559 -19.59076416 45.17122559 -18.4375 45.1875 C-18.54893845 41.08285024 -18.67918134 36.97899275 -18.8125 32.875 C-18.8434375 31.72708984 -18.874375 30.57917969 -18.90625 29.39648438 C-19.04564054 14.76000536 -19.04564054 14.76000536 -25.4375 2.1875 C-29.27659513 -0.05800847 -31.67316399 -0.82545485 -36.125 -0.75 C-39.86497163 0.30848254 -40.99317808 1.23415434 -43.4375 4.1875 C-44.48754933 6.82941179 -44.48754933 6.82941179 -45.0625 9.75 C-45.30355469 10.80574219 -45.54460938 11.86148438 -45.79296875 12.94921875 C-46.39615191 15.97975716 -46.89486642 19.01052045 -47.375 22.0625 C-48.34562653 27.5839329 -50.02854554 31.45554481 -54.703125 34.81640625 C-59.4564617 37.19986508 -64.24905884 36.79211509 -69.4375 36.1875 C-73.02202349 34.74111333 -74.59735836 33.6389275 -76.52734375 30.3046875 C-79.11990041 24.09590374 -78.60208291 18.46757746 -76.4375 12.1875 C-71.93707277 3.15550072 -63.35519021 -0.95156877 -54.1875 -4.125 C-37.78378303 -9.37862287 -14.63389958 -10.1458077 0 0 Z M-44.16015625 60.78515625 C-49.88473156 66.95982102 -52.0193835 73.34079249 -51.72265625 81.7265625 C-51.11717893 86.95191471 -49.80869656 90.81630344 -46.0625 94.5625 C-41.49782892 97.38824877 -38.27773222 98.77342896 -32.76953125 97.94140625 C-27.71503627 96.30737353 -22.2120913 92.9620913 -18.4375 89.1875 C-18.34888008 86.3758662 -18.32227645 83.58891745 -18.33984375 80.77734375 C-18.3412587 79.93530899 -18.34267365 79.09327423 -18.34413147 78.22572327 C-18.34974737 75.52544665 -18.36230252 72.82525172 -18.375 70.125 C-18.38001295 68.29882932 -18.38457621 66.47265734 -18.38867188 64.64648438 C-18.39972196 60.16012458 -18.41699721 55.67382616 -18.4375 51.1875 C-28.2376062 51.08403107 -36.90610132 54.05747265 -44.16015625 60.78515625 Z " fill="#3E71AE" transform="translate(747.4375,186.8125)"/>
<path d="M0 0 C0.33 9.9 0.66 19.8 1 30 C-4 29 -4 29 -5.95703125 26.56323242 C-6.56933594 25.50467041 -7.18164062 24.4461084 -7.8125 23.35546875 C-8.14870361 22.78927322 -8.48490723 22.2230777 -8.83129883 21.63972473 C-9.90312459 19.83095654 -10.95294197 18.01070063 -12 16.1875 C-13.04919959 14.37649656 -14.10306498 12.56879502 -15.16870117 10.76741028 C-16.13811364 9.1265612 -17.09100389 7.47598392 -18.04296875 5.82495117 C-21.74149109 0.48617847 -26.64222982 -2.71737292 -33 -4 C-47.13204 -5.17178753 -58.70317576 -3.17061587 -70 6 C-83.93030967 18.21087814 -87.83852594 39.371921 -89 57 C-90.02004809 82.983225 -90.69499231 114.9175343 -71.74609375 135.44140625 C-62.274554 143.8958679 -51.02093497 146.62344364 -38.57421875 146.36328125 C-32.75852755 145.77217821 -27.44966848 144.05393282 -22 142 C-21.09378906 141.72929687 -20.18757812 141.45859375 -19.25390625 141.1796875 C-16.20573958 139.58428657 -16.04943088 138.2416742 -15 135 C-13.76854483 132.46775097 -12.52154587 129.94934393 -11.25 127.4375 C-10.53643819 126.01954139 -9.82289674 124.60157253 -9.109375 123.18359375 C-8.75552734 122.48218262 -8.40167969 121.78077148 -8.03710938 121.05810547 C-6.51743578 118.04236903 -5.00879952 115.02119141 -3.5 112 C-2.66666667 110.33333333 -1.83333333 108.66666667 -1 107 C-0.01 107 0.98 107 2 107 C2 118.22 2 129.44 2 141 C-24.46208848 153.02822204 -52.36273966 157.24251445 -80.31640625 147.40625 C-99.85576175 139.94689901 -113.50248562 127.07176144 -122.2734375 108.13671875 C-131.83563639 86.14780527 -131.96801674 58.49771715 -123.3125 36.1875 C-115.33290305 17.06247417 -100.89836582 3.33252129 -82.02734375 -4.87109375 C-54.87600611 -14.99591514 -25.76825617 -12.88412808 0 0 Z " fill="#3E71AE" transform="translate(650,148)"/>
<path d="M0 0 C2.96480308 3.25171951 3.91601573 5.88720842 4.25 10.3125 C3.92886375 15.04925965 2.51554813 18.16871268 -0.5 21.8125 C-4.98131451 25.36020732 -11.62954774 24.37136106 -17 24 C-25.07236531 21.56305953 -29.98801718 13.30509829 -34.4453125 6.56640625 C-36.48417455 4.5121759 -38.17848569 4.33725171 -41 4 C-43.21104738 18.36660796 -44.50234318 32.46842079 -45 47 C-36.42 47 -27.84 47 -19 47 C-19 48.98 -19 50.96 -19 53 C-27.58 53 -36.16 53 -45 53 C-44.98227704 65.43074772 -44.94358144 77.86094354 -44.86790943 90.29147625 C-44.83361173 96.06342966 -44.80852508 101.83511759 -44.80444336 107.60717773 C-44.80016646 113.1770942 -44.7717536 118.74641153 -44.72656822 124.31614113 C-44.71357386 126.4415723 -44.70929237 128.56707511 -44.71384621 130.69254112 C-44.71873828 133.66897737 -44.69272093 136.64365312 -44.65942383 139.61987305 C-44.67236229 140.93941483 -44.67236229 140.93941483 -44.68556213 142.28561401 C-44.60291492 146.68968141 -44.43396335 148.45206363 -41.61235046 152.01472473 C-39.09453854 153.92815473 -37.20802281 154.95593383 -34.1875 155.8125 C-33.39730469 156.04582031 -32.60710938 156.27914062 -31.79296875 156.51953125 C-31.20128906 156.67808594 -30.60960937 156.83664062 -30 157 C-30 157.99 -30 158.98 -30 160 C-50.46 160 -70.92 160 -92 160 C-92 159.01 -92 158.02 -92 157 C-90.71086513 156.32845067 -89.41859796 155.66291141 -88.125 155 C-87.40570312 154.62875 -86.68640625 154.2575 -85.9453125 153.875 C-84 153 -84 153 -82 153 C-80.98118899 149.58883925 -80.81608424 146.39541436 -80.71875 142.84375 C-80.68193115 141.53889648 -80.6451123 140.23404297 -80.60717773 138.88964844 C-80.57117577 137.42643906 -80.53545983 135.96322262 -80.5 134.5 C-80.45975841 132.96647026 -80.41947376 131.43294165 -80.37915039 129.89941406 C-79.72933688 104.27111249 -79.39425999 78.63323815 -79 53 C-83.62 53 -88.24 53 -93 53 C-93 51.68 -93 50.36 -93 49 C-92.24074219 48.84144531 -91.48148438 48.68289062 -90.69921875 48.51953125 C-89.20841797 48.16955078 -89.20841797 48.16955078 -87.6875 47.8125 C-86.70136719 47.59207031 -85.71523438 47.37164062 -84.69921875 47.14453125 C-81.22491071 45.6713442 -80.54695613 44.40894589 -79 41 C-78.20422979 38.63994178 -77.45789194 36.26288902 -76.75 33.875 C-71.78451378 18.3232941 -61.38661043 6.17328555 -46.98828125 -1.6328125 C-32.44315304 -8.28744632 -13.19668851 -10.53197256 0 0 Z " fill="#3E71AE" transform="translate(1008,136)"/>
<path d="M0 0 C9.85195092 7.54889746 16.09828386 16.53437823 18.6875 28.8125 C18.77762193 30.46037094 18.8181289 32.11138671 18.8203125 33.76171875 C18.82160156 34.69177734 18.82289062 35.62183594 18.82421875 36.58007812 C18.82035156 37.54365234 18.81648438 38.50722656 18.8125 39.5 C18.81636719 40.47517578 18.82023437 41.45035156 18.82421875 42.45507812 C18.82292969 43.38126953 18.82164063 44.30746094 18.8203125 45.26171875 C18.81918457 46.11080811 18.81805664 46.95989746 18.81689453 47.8347168 C18.6875 49.8125 18.6875 49.8125 17.6875 50.8125 C15.54006451 50.90675595 13.38948974 50.92992648 11.23999023 50.92602539 C10.23027664 50.92624443 10.23027664 50.92624443 9.20016479 50.9264679 C6.96544216 50.92576878 4.7308019 50.91797652 2.49609375 50.91015625 C0.95052638 50.90829206 -0.59504157 50.90686816 -2.14060974 50.90586853 C-6.21607077 50.9020434 -10.29149637 50.89221317 -14.36694336 50.88116455 C-18.52261882 50.87095032 -22.67829999 50.86637089 -26.83398438 50.86132812 C-34.99350587 50.85059089 -43.15299853 50.83351454 -51.3125 50.8125 C-51.02196133 53.67524918 -50.72402561 56.53690988 -50.421875 59.3984375 C-50.34114746 60.20144287 -50.26041992 61.00444824 -50.17724609 61.83178711 C-49.10028625 71.89879745 -46.70759576 81.48540512 -39.3125 88.8125 C-30.04060449 96.19602575 -19.7207688 96.51280957 -8.3125 95.8125 C0.13156479 94.58060726 6.53565704 90.27522975 12.3046875 84.07421875 C12.76101563 83.65785156 13.21734375 83.24148438 13.6875 82.8125 C15.875 83.125 15.875 83.125 17.6875 83.8125 C17.6875 89.46203521 13.25727594 93.69901973 9.6875 97.8125 C-3.01670991 109.31590103 -16.77095659 113.38712953 -33.70703125 113.0546875 C-48.49076117 112.06163089 -62.28374888 106.84916706 -73.05859375 96.46484375 C-86.71639032 80.39267067 -88.28249101 62.11541536 -87.3125 41.8125 C-85.72366958 28.0669304 -78.39845396 14.54658353 -67.8125 5.73046875 C-48.78106494 -8.84047372 -20.96584578 -13.5977582 0 0 Z M-43.5625 3.9375 C-51.39122759 16.79898104 -51.3125 29.88517913 -51.3125 44.8125 C-38.4425 44.8125 -25.5725 44.8125 -12.3125 44.8125 C-10.39233028 22.32316396 -10.39233028 22.32316396 -18.3125 1.8125 C-21.8292565 -1.50329899 -26.04292603 -1.97295585 -30.74609375 -2.31640625 C-36.06261855 -2.04936619 -39.7725408 0.35809409 -43.5625 3.9375 Z " fill="#000000" transform="translate(1767.3125,187.1875)"/>
<path d="M0 0 C-0.00276538 1.14991094 -0.00276538 1.14991094 -0.00558662 2.32305241 C-0.04977558 20.98536771 -0.08286141 39.64767255 -0.10362434 58.31002903 C-0.11393229 67.33504173 -0.12798343 76.36001949 -0.15087891 85.38500977 C-0.17082751 93.2521525 -0.18371994 101.11926993 -0.18817699 108.98643726 C-0.19078187 113.15115711 -0.19689449 117.31580455 -0.21146011 121.48050117 C-0.22506724 125.40303757 -0.22921632 129.32547195 -0.22621536 133.24802971 C-0.22676413 134.68510874 -0.23072291 136.1221913 -0.23841095 137.55924988 C-0.24842069 139.52735402 -0.24476383 141.4955133 -0.24050903 143.46363831 C-0.24327441 145.11318685 -0.24327441 145.11318685 -0.24609566 146.79605961 C0.03346539 150.43568877 0.7863805 153.56005175 2 157 C4.11069963 158.46191654 4.11069963 158.46191654 6.625 158.9375 C7.44226563 159.15277344 8.25953125 159.36804688 9.1015625 159.58984375 C9.72804688 159.72519531 10.35453125 159.86054688 11 160 C11 160.99 11 161.98 11 163 C-7.81 163 -26.62 163 -46 163 C-45.505 161.02 -45.505 161.02 -45 159 C-43 158 -41 157 -39 156 C-36.33888193 152.41771024 -35.62273491 149.84570602 -35.60559082 145.42114258 C-35.59424103 144.31082672 -35.58289124 143.20051086 -35.57119751 142.05654907 C-35.57412811 140.84808319 -35.57705872 139.63961731 -35.58007812 138.39453125 C-35.57160858 137.11436127 -35.56313904 135.83419128 -35.55441284 134.51522827 C-35.53222663 131.01110991 -35.52926457 127.50722689 -35.53116035 124.00304794 C-35.53128016 121.07553049 -35.52271221 118.14806272 -35.51438284 115.22055912 C-35.49516023 108.31399778 -35.49226119 101.40755732 -35.49902344 94.50097656 C-35.50566795 87.37928148 -35.48278133 80.25810384 -35.44570971 73.13651371 C-35.4150143 67.01745908 -35.40365234 60.89857096 -35.40754652 54.77944088 C-35.40961375 51.12669719 -35.40413924 47.47435646 -35.37965393 43.82168579 C-35.35325519 39.74926459 -35.36711315 35.67793716 -35.38476562 31.60546875 C-35.37150238 30.39700287 -35.35823914 29.18853699 -35.34457397 27.94345093 C-35.34113006 21.42115852 -35.34113006 21.42115852 -38.3314209 15.79418945 C-41.16525174 13.88889483 -43.69895186 12.84445418 -47 12 C-47 11.01 -47 10.02 -47 9 C-37.94497196 6.20117315 -28.77730694 3.8924119 -19.5625 1.6875 C-18.43730957 1.40890137 -17.31211914 1.13030273 -16.15283203 0.84326172 C-15.07243652 0.58947754 -13.99204102 0.33569336 -12.87890625 0.07421875 C-11.9154126 -0.15692627 -10.95191895 -0.38807129 -9.95922852 -0.6262207 C-6.46115549 -1.06806129 -3.46935803 -0.54772277 0 0 Z " fill="#3E71AE" transform="translate(830,133)"/>
<path d="M0 0 C1.04220703 -0.01160156 2.08441406 -0.02320313 3.15820312 -0.03515625 C14.50752297 0.00706069 23.17695958 2.75920426 33.5625 7.375 C33.2325 16.285 32.9025 25.195 32.5625 34.375 C31.2425 34.375 29.9225 34.375 28.5625 34.375 C27.17797852 32.72607422 27.17797852 32.72607422 25.94140625 30.4296875 C25.48056641 29.59953125 25.01972656 28.769375 24.54492188 27.9140625 C24.07634766 27.03492188 23.60777344 26.15578125 23.125 25.25 C18.24311575 15.41890666 18.24311575 15.41890666 10.38671875 8.1328125 C0.85328939 5.30938369 -6.48933424 5.86590865 -15.4375 10.375 C-18.92274057 12.96403586 -20.63300632 16.0683854 -21.4375 20.3125 C-21.69500591 24.67348715 -20.73921034 27.6085649 -18.4375 31.375 C-11.69510835 38.25223949 -2.26678667 41.16849266 6.6875 44.03125 C7.60249268 44.32588135 8.51748535 44.6205127 9.46020508 44.92407227 C11.2732333 45.5014425 13.09066292 46.0652307 14.9128418 46.61303711 C25.71694195 50.02427061 34.967728 56.30441039 40.5625 66.375 C44.06623911 76.00279593 44.99340995 85.59116109 41.5625 95.375 C36.04685106 107.00544185 28.20511676 112.37863639 16.5625 117.375 C-4.31389407 124.71093568 -26.86615958 119.76271732 -46.4375 111.375 C-46.4375 101.805 -46.4375 92.235 -46.4375 82.375 C-41.4375 83.375 -41.4375 83.375 -39.92358398 85.15332031 C-39.51438721 85.91225586 -39.10519043 86.67119141 -38.68359375 87.453125 C-38.22146484 88.28457031 -37.75933594 89.11601562 -37.28320312 89.97265625 C-36.81849609 90.84792969 -36.35378906 91.72320312 -35.875 92.625 C-30.70578548 102.69053185 -30.70578548 102.69053185 -22.4375 110.125 C-21.7775 110.53234375 -21.1175 110.9396875 -20.4375 111.359375 C-13.67822694 114.79181835 -4.63100055 114.37969284 2.5625 112.65625 C7.47731872 110.84244786 10.83793889 109.02945856 13.5625 104.375 C13.995625 103.653125 14.42875 102.93125 14.875 102.1875 C16.11371368 97.12003496 15.88431831 92.08655613 13.57421875 87.34765625 C8.25409985 80.17569656 -0.88967085 78.21304851 -8.98046875 75.53515625 C-23.18224288 70.80660707 -36.62546998 66.28976838 -44.49609375 52.5234375 C-48.61012684 43.58673405 -48.20866343 34.33483644 -45.4765625 25.1171875 C-41.88889218 15.64897485 -34.95434455 8.46524433 -25.75463867 4.31567383 C-17.23390188 0.85656532 -9.1386597 -0.10135297 0 0 Z " fill="#000001" transform="translate(1846.4375,179.625)"/>
<path d="M0 0 C0.19916016 1.30324219 0.19916016 1.30324219 0.40234375 2.6328125 C0.57894531 3.78523437 0.75554687 4.93765625 0.9375 6.125 C1.11152344 7.26195312 1.28554687 8.39890625 1.46484375 9.5703125 C1.95589266 12.71732669 2.47018719 15.85930783 3 19 C3.56847656 18.34773438 4.13695312 17.69546875 4.72265625 17.0234375 C19.93334412 -0.19333441 19.93334412 -0.19333441 31.4765625 -1.34765625 C37.89298317 -1.50300117 42.37873918 -1.34040391 48 2 C51.63830702 5.63830702 53.08952695 8.95101309 54 14 C54 19.476441 53.7491362 24.75097897 50 29 C44.26621401 33.41979337 39.12020318 33.88329298 32 33 C26.31135038 30.9984381 22.87573141 27.2387762 19.0625 22.6875 C17.04702347 20.77546791 17.04702347 20.77546791 14.0625 20.375 C10.53457826 21.09498403 9.26233538 22.38158737 7.078125 25.19921875 C4.3031568 29.83421998 3.73930054 33.71661007 3.69360352 39.09765625 C3.68528 39.792612 3.67695648 40.48756775 3.66838074 41.20358276 C3.64437816 43.48994622 3.63552233 45.77602412 3.62890625 48.0625 C3.61993502 49.65763431 3.61081308 51.25276777 3.60154724 52.84790039 C3.58508301 56.18670697 3.57736138 59.52541355 3.57446289 62.86425781 C3.5690706 67.13840807 3.53134588 71.41161704 3.48571873 75.6855011 C3.45595601 78.97810289 3.44873958 82.27047729 3.44773674 85.5632019 C3.44353561 87.13886849 3.4311054 88.71453583 3.41021919 90.29006958 C3.38330816 92.49486461 3.38812576 94.69746742 3.40063477 96.90234375 C3.39302879 98.78167603 3.39302879 98.78167603 3.38526917 100.69897461 C4.16653338 104.89426282 5.7356463 106.34478644 9 109 C11.39231021 110.19358607 11.39231021 110.19358607 13.8125 110.8125 C14.60269531 111.04582031 15.39289063 111.27914062 16.20703125 111.51953125 C16.79871094 111.67808594 17.39039063 111.83664062 18 112 C18 112.99 18 113.98 18 115 C-2.13 115 -22.26 115 -43 115 C-43 114.01 -43 113.02 -43 112 C-42.44570312 111.74605469 -41.89140625 111.49210937 -41.3203125 111.23046875 C-40.59585937 110.88628906 -39.87140625 110.54210937 -39.125 110.1875 C-38.40570312 109.85105469 -37.68640625 109.51460938 -36.9453125 109.16796875 C-34.69457194 108.00532903 -34.69457194 108.00532903 -33 105 C-32.79529684 102.29828272 -32.70629115 99.69878673 -32.70947266 96.99609375 C-32.70275543 96.18117462 -32.69603821 95.36625549 -32.68911743 94.52664185 C-32.67010363 91.83019941 -32.66621185 89.13400532 -32.6640625 86.4375 C-32.657638 84.56567278 -32.6509099 82.69384657 -32.64389038 80.82202148 C-32.63190992 76.89792552 -32.62821046 72.97391765 -32.62939453 69.04980469 C-32.62959801 64.01553026 -32.60226951 58.98181852 -32.56785011 53.94767761 C-32.54564278 50.08212679 -32.54155505 46.21671284 -32.54261398 42.35110474 C-32.54024972 40.49470069 -32.53138005 38.63829333 -32.51594925 36.7819519 C-32.49640911 34.1888654 -32.50207893 31.59701151 -32.51416016 29.00390625 C-32.50292114 28.23394318 -32.49168213 27.4639801 -32.48010254 26.67068481 C-32.51380929 22.4496686 -32.51380929 22.4496686 -34.82723999 19.07397461 C-37.4832836 17.76111751 -40.16104605 16.83878185 -43 16 C-43 14.68 -43 13.36 -43 12 C-37.68512768 10.1146915 -32.36497053 8.24547482 -27.03930664 6.39086914 C-25.2288492 5.75788174 -23.41990655 5.12054418 -21.61254883 4.47875977 C-19.01250202 3.5563469 -16.40738669 2.64977995 -13.80078125 1.74609375 C-12.99538406 1.45657333 -12.18998688 1.16705292 -11.36018372 0.86875916 C-7.22012968 -0.54868976 -4.3156808 -1.48647025 0 0 Z " fill="#3E71AE" transform="translate(1163,181)"/>
<path d="M0 0 C1.32 0 2.64 0 4 0 C4.20547125 11.02695704 3.56466005 21.98912905 3 33 C11.58 33 20.16 33 29 33 C29 34.98 29 36.96 29 39 C20.42 39 11.84 39 3 39 C3.06293848 50.50070342 3.13836602 62.00113943 3.23571491 73.50160408 C3.2804212 78.84187432 3.3196769 84.18206822 3.34643555 89.52246094 C3.37246573 94.6773118 3.41286647 99.83186895 3.46318626 104.98653793 C3.47985684 106.95204894 3.49136993 108.91761074 3.49761391 110.88318253 C3.50725281 113.63874268 3.53530978 116.39355107 3.56762695 119.14892578 C3.56619186 119.95956985 3.56475677 120.77021393 3.5632782 121.60542297 C3.65741945 127.29007979 4.79505529 131.45583303 8.625 135.875 C12.45139672 137.68750371 15.8611401 137.83833366 20 137 C23.26757054 135.31732982 26.10128137 133.24679798 29 131 C29.99 130.34 30.98 129.68 32 129 C32.66 130.32 33.32 131.64 34 133 C28.68328884 141.21483999 22.69682786 146.2024438 13.1875 148.875 C2.2484313 151.20423136 -9.19873302 150.92003962 -19.35546875 145.81640625 C-25.9415187 141.45453827 -29.36033435 134.60800199 -31 127 C-31.08975724 124.14740296 -31.12620904 121.31999516 -31.11352539 118.46777344 C-31.11367142 117.60887512 -31.11381744 116.74997681 -31.1139679 115.86505127 C-31.11327196 113.02980004 -31.10549445 110.19461474 -31.09765625 107.359375 C-31.09579094 105.39211055 -31.09436757 103.42484564 -31.09336853 101.45758057 C-31.08955227 96.28233556 -31.07972956 91.10711867 -31.06866455 85.93188477 C-31.0584313 80.64990621 -31.0538668 75.36792311 -31.04882812 70.0859375 C-31.03810651 59.72394599 -31.02104075 49.36197533 -31 39 C-36.28 39 -41.56 39 -47 39 C-47 37.68 -47 36.36 -47 35 C-46.26136719 34.85304687 -45.52273438 34.70609375 -44.76171875 34.5546875 C-25.78433988 30.35892648 -13.00023612 17.34318097 -1.8125 2 C-1.214375 1.34 -0.61625 0.68 0 0 Z " fill="#000000" transform="translate(1943,150)"/>
<path d="M0 0 C0.01030746 1.30656555 0.02061493 2.6131311 0.03123474 3.95928955 C0.12890881 16.26078841 0.23163727 28.56223601 0.33933926 40.86365128 C0.39454929 47.18821719 0.44796633 53.51278775 0.49731445 59.83740234 C0.54498617 65.93876961 0.59733017 72.04008041 0.65294075 78.14138031 C0.67335154 80.47140856 0.69206673 82.80145229 0.70907402 85.13150787 C0.7331461 88.39013778 0.7631971 91.64866099 0.79467773 94.90722656 C0.80331093 96.35839622 0.80331093 96.35839622 0.81211853 97.83888245 C0.82190735 98.72786728 0.83169617 99.61685211 0.84178162 100.53277588 C0.84823417 101.30339481 0.85468672 102.07401375 0.8613348 102.86798477 C1.00512105 105.07873746 1.21997308 106.92169931 2 109 C4.91666667 110.25 4.91666667 110.25 8 111 C8.99 111.495 8.99 111.495 10 112 C10 112.99 10 113.98 10 115 C-8.48 115 -26.96 115 -46 115 C-46 114.01 -46 113.02 -46 112 C-45.37351562 111.78085937 -44.74703125 111.56171875 -44.1015625 111.3359375 C-43.28429687 111.01882813 -42.46703125 110.70171875 -41.625 110.375 C-40.81289063 110.07335937 -40.00078125 109.77171875 -39.1640625 109.4609375 C-36.10672972 107.39696194 -35.91884164 105.54389862 -35 102 C-34.82212008 99.37461627 -34.73603036 96.85985821 -34.75708008 94.23803711 C-34.75518173 93.48441391 -34.75328339 92.73079071 -34.75132751 91.95433044 C-34.74764146 89.47856028 -34.75829273 87.00308757 -34.76953125 84.52734375 C-34.77072439 82.79911839 -34.77117593 81.07089238 -34.7709198 79.34266663 C-34.77248091 75.72734495 -34.78074244 72.11212281 -34.79418945 68.49682617 C-34.81119138 63.86772203 -34.81500316 59.23872701 -34.81424427 54.6095953 C-34.81451645 51.04337019 -34.82000511 47.47716882 -34.82724571 43.91095161 C-34.83042254 42.2041498 -34.83239748 40.4973453 -34.83313942 38.7905407 C-34.83531273 36.40450348 -34.84407799 34.01858085 -34.85473633 31.63256836 C-34.85428314 30.9306134 -34.85382996 30.22865845 -34.85336304 29.50543213 C-34.87759732 25.78642757 -35.26067476 22.69662619 -36 19 C-39.3 18.01 -42.6 17.02 -46 16 C-45 12 -45 12 -43.39483643 11.01872253 C-42.70154236 10.79364517 -42.00824829 10.56856781 -41.29394531 10.33666992 C-40.50932922 10.07347458 -39.72471313 9.81027924 -38.9163208 9.53910828 C-37.63516388 9.13883171 -37.63516388 9.13883171 -36.328125 8.73046875 C-35.01627228 8.30257805 -35.01627228 8.30257805 -33.67791748 7.86604309 C-31.82431141 7.2657235 -29.96802437 6.6736296 -28.109375 6.08911133 C-25.26867263 5.19338781 -22.43902027 4.2678777 -19.609375 3.33789062 C-17.80787248 2.7586073 -16.00580566 2.18107534 -14.203125 1.60546875 C-13.35711731 1.32849655 -12.51110962 1.05152435 -11.63946533 0.76615906 C-10.8422406 0.51872452 -10.04501587 0.27128998 -9.22363281 0.01635742 C-8.52715637 -0.20474197 -7.83067993 -0.42584137 -7.11309814 -0.65364075 C-4.52350137 -1.07810319 -2.52661376 -0.63675701 0 0 Z " fill="#3E71AE" transform="translate(896,181)"/>
<path d="M0 0 C0.01030746 1.30656555 0.02061493 2.6131311 0.03123474 3.95928955 C0.12890881 16.26078841 0.23163727 28.56223601 0.33933926 40.86365128 C0.39454929 47.18821719 0.44796633 53.51278775 0.49731445 59.83740234 C0.54498617 65.93876961 0.59733017 72.04008041 0.65294075 78.14138031 C0.67335154 80.47140856 0.69206673 82.80145229 0.70907402 85.13150787 C0.7331461 88.39013778 0.7631971 91.64866099 0.79467773 94.90722656 C0.80331093 96.35839622 0.80331093 96.35839622 0.81211853 97.83888245 C0.82190735 98.72786728 0.83169617 99.61685211 0.84178162 100.53277588 C0.84823417 101.30339481 0.85468672 102.07401375 0.8613348 102.86798477 C1.00512105 105.07873746 1.21997308 106.92169931 2 109 C4.91666667 110.25 4.91666667 110.25 8 111 C8.99 111.495 8.99 111.495 10 112 C10 112.99 10 113.98 10 115 C-8.48 115 -26.96 115 -46 115 C-46 114.01 -46 113.02 -46 112 C-45.06027344 111.65388672 -45.06027344 111.65388672 -44.1015625 111.30078125 C-43.28429688 110.97464844 -42.46703125 110.64851563 -41.625 110.3125 C-40.81289062 109.99925781 -40.00078125 109.68601562 -39.1640625 109.36328125 C-36.2826968 107.54812488 -35.98737659 106.24884045 -35 103 C-34.81365907 100.38298692 -34.72636049 97.87471847 -34.74121094 95.25976562 C-34.7377063 94.49653488 -34.73420166 93.73330414 -34.73059082 92.94694519 C-34.72181477 90.4332866 -34.727608 87.91991127 -34.734375 85.40625 C-34.73302716 83.65417426 -34.73108564 81.90209888 -34.72857666 80.15002441 C-34.72563099 76.48165316 -34.72990513 72.81337943 -34.73925781 69.14501953 C-34.75065202 64.44745367 -34.74408957 59.75011638 -34.73211288 55.0525589 C-34.72487925 51.43571252 -34.72718913 47.81892016 -34.73236847 44.20207214 C-34.7337008 42.47014845 -34.73207184 40.73821981 -34.72740936 39.00630188 C-34.72231942 36.58414759 -34.7300889 34.16236132 -34.74121094 31.74023438 C-34.73716248 31.02735764 -34.73311401 30.3144809 -34.72894287 29.58000183 C-34.76244669 25.63316247 -35.12211744 22.50340064 -37 19 C-39.14598502 17.76365342 -39.14598502 17.76365342 -41.625 17.1875 C-42.44226562 16.95417969 -43.25953125 16.72085938 -44.1015625 16.48046875 C-45.04128906 16.24263672 -45.04128906 16.24263672 -46 16 C-45.73162842 14.10395813 -45.73162842 14.10395813 -45 12 C-43.39483643 11.01872253 -43.39483643 11.01872253 -41.29394531 10.33666992 C-40.50932922 10.07347458 -39.72471313 9.81027924 -38.9163208 9.53910828 C-37.63516388 9.13883171 -37.63516388 9.13883171 -36.328125 8.73046875 C-35.01627228 8.30257805 -35.01627228 8.30257805 -33.67791748 7.86604309 C-31.82431141 7.2657235 -29.96802437 6.6736296 -28.109375 6.08911133 C-25.26867263 5.19338781 -22.43902027 4.2678777 -19.609375 3.33789062 C-17.80787248 2.7586073 -16.00580566 2.18107534 -14.203125 1.60546875 C-13.35711731 1.32849655 -12.51110962 1.05152435 -11.63946533 0.76615906 C-10.8422406 0.51872452 -10.04501587 0.27128998 -9.22363281 0.01635742 C-8.52715637 -0.20474197 -7.83067993 -0.42584137 -7.11309814 -0.65364075 C-4.52350137 -1.07810319 -2.52661376 -0.63675701 0 0 Z " fill="#3E72AE" transform="translate(1404,181)"/>
<path d="M0 0 C4.14781403 2.45136657 6.75742694 4.88470155 8.3125 9.57421875 C9.874283 15.94824563 9.98405511 21.31285279 6.51953125 27.03515625 C3.70231752 30.74585523 0.96393694 32.89775241 -3.4375 34.3125 C-10.10711457 34.92501562 -16.87216373 35.52043718 -22.4375 31.3125 C-27.05969937 26.67934755 -29.56366599 23.21799528 -29.6875 16.5 C-29.62228303 12.01307216 -29.06186044 9.0740833 -26.4375 5.3125 C-19.01855649 -1.78388075 -9.68828804 -4.48128679 0 0 Z " fill="#3E71AE" transform="translate(1396.4375,133.6875)"/>
<path d="M0 0 C4.59372099 2.68831721 7.65872527 6.26532178 9.21875 11.38671875 C10.17527661 16.9193556 9.4992576 22.31608603 6.5859375 27.16796875 C3.75426034 30.86741795 1.02856033 33.02206989 -3.375 34.4375 C-10.04461457 35.05001562 -16.80966373 35.64543718 -22.375 31.4375 C-26.99719937 26.80434755 -29.50116599 23.34299528 -29.625 16.625 C-29.55978303 12.13807216 -28.99936044 9.1990833 -26.375 5.4375 C-18.97813853 -1.6377588 -9.71412853 -4.29486138 0 0 Z " fill="#3E71AE" transform="translate(888.375,133.5625)"/>
<path d="M0 0 C1.65 0 3.3 0 5 0 C5 1.32 5 2.64 5 4 C5.763125 3.34 6.52625 2.68 7.3125 2 C11.82186506 -0.99910266 16.79192072 -0.80242999 22 0 C24.45332965 1.0882839 25.94646934 2.22397349 28 4 C28.433125 3.525625 28.86625 3.05125 29.3125 2.5625 C32.9670031 -0.82129916 37.63174814 -0.33783127 42.33203125 -0.26953125 C45 0 45 0 48.0625 1.5 C53.21402452 8.14712841 52.24378502 17.02312909 52.125 25 C52.11597656 26.15628906 52.10695313 27.31257813 52.09765625 28.50390625 C52.07424922 31.33615647 52.04145995 34.16796619 52 37 C49.69 37 47.38 37 45 37 C44.9906543 36.20303711 44.98130859 35.40607422 44.97167969 34.58496094 C44.91798502 30.97267825 44.83433392 27.36169179 44.75 23.75 C44.73582031 22.49574219 44.72164062 21.24148438 44.70703125 19.94921875 C44.67480469 18.74394531 44.64257812 17.53867187 44.609375 16.296875 C44.58842773 15.18666992 44.56748047 14.07646484 44.54589844 12.93261719 C43.88182197 9.36513665 42.89747812 8.13587011 40 6 C36.40528996 5.75161619 36.40528996 5.75161619 33 7 C30.21583725 10.62995367 29.60413251 13.43883197 29.48828125 17.95703125 C29.45283203 19.06884766 29.41738281 20.18066406 29.38085938 21.32617188 C29.35830078 22.47666016 29.33574219 23.62714844 29.3125 24.8125 C29.27833984 25.98232422 29.24417969 27.15214844 29.20898438 28.35742188 C29.12667684 31.23818554 29.05746822 34.11865138 29 37 C26.69 37 24.38 37 22 37 C21.67 27.1 21.34 17.2 21 7 C13.89331805 5.60726624 13.89331805 5.60726624 10.625 6.625 C7.77353364 9.03777923 7.09804931 12.14796198 6.68115234 15.77075195 C6.634021 17.23967896 6.634021 17.23967896 6.5859375 18.73828125 C6.54726563 19.80498047 6.50859375 20.87167969 6.46875 21.97070312 C6.42234375 23.62489258 6.42234375 23.62489258 6.375 25.3125 C6.33632813 26.43462891 6.29765625 27.55675781 6.2578125 28.71289062 C6.16377989 31.47509852 6.07812659 34.237304 6 37 C4.02 37 2.04 37 0 37 C0 24.79 0 12.58 0 0 Z " fill="#000000" transform="translate(810,375)"/>
<path d="M0 0 C2.31 0 4.62 0 7 0 C7.176521 0.68626465 7.35304199 1.3725293 7.53491211 2.07958984 C8.33344535 5.17866558 9.13542849 8.27683821 9.9375 11.375 C10.21529297 12.45523437 10.49308594 13.53546875 10.77929688 14.6484375 C11.18051758 16.1953125 11.18051758 16.1953125 11.58984375 17.7734375 C11.83597412 18.72653809 12.08210449 19.67963867 12.33569336 20.66162109 C12.9206543 22.99611383 12.9206543 22.99611383 14 25 C16.64 16.75 19.28 8.5 22 0 C24.31 0 26.62 0 29 0 C31.42093771 6.11605316 33.38620357 12.33350061 35.28588867 18.62695312 C36.12789174 22.09009704 36.12789174 22.09009704 38 25 C38.176521 24.31373535 38.35304199 23.6274707 38.53491211 22.92041016 C39.33344535 19.82133442 40.13542849 16.72316179 40.9375 13.625 C41.21529297 12.54476563 41.49308594 11.46453125 41.77929688 10.3515625 C42.18051758 8.8046875 42.18051758 8.8046875 42.58984375 7.2265625 C42.83597412 6.27346191 43.08210449 5.32036133 43.33569336 4.33837891 C44 2 44 2 45 0 C46.98 0 48.96 0 51 0 C50.36361844 7.91941498 48.09610757 15.3897739 45.9375 23 C45.55611709 24.36053044 45.17525327 25.72120649 44.79492188 27.08203125 C43.86926328 30.3897221 42.93658374 33.69538376 42 37 C39.36 37 36.72 37 34 37 C32.8516942 33.58415928 31.70678792 30.16718858 30.5625 26.75 C30.07426758 25.29787109 30.07426758 25.29787109 29.57617188 23.81640625 C29.26357422 22.88183594 28.95097656 21.94726562 28.62890625 20.984375 C28.34088135 20.12553711 28.05285645 19.26669922 27.75610352 18.38183594 C27.08461109 16.26653722 26.50922461 14.15928718 26 12 C23.86480252 17.64256392 21.81031047 23.30747337 19.8125 29 C19.40354492 30.16208984 19.40354492 30.16208984 18.98632812 31.34765625 C18.32348918 33.23151429 17.66163914 35.11572024 17 37 C14.69 37 12.38 37 10 37 C7.30597028 30.20275579 5.27524559 23.28965955 3.3125 16.25 C2.99216797 15.12722656 2.67183594 14.00445312 2.34179688 12.84765625 C2.03951172 11.76871094 1.73722656 10.68976563 1.42578125 9.578125 C1.15161377 8.60262695 0.87744629 7.62712891 0.5949707 6.62207031 C0 4 0 4 0 0 Z " fill="#000103" transform="translate(1348,375)"/>
<path d="M0 0 C2.31 0 4.62 0 7 0 C7 6.93 7 13.86 7 21 C14.92 21 22.84 21 31 21 C31 14.07 31 7.14 31 0 C33.31 0 35.62 0 38 0 C38 16.17 38 32.34 38 49 C35.69 49 33.38 49 31 49 C31 41.74 31 34.48 31 27 C23.08 27 15.16 27 7 27 C7 34.26 7 41.52 7 49 C4.69 49 2.38 49 0 49 C0 32.83 0 16.66 0 0 Z " fill="#000000" transform="translate(720,363)"/>
<path d="M0 0 C1.98 0 3.96 0 6 0 C8.91871745 5.64183414 11.4077468 11.3104386 13.671875 17.2421875 C14.16279633 18.51656174 14.16279633 18.51656174 14.66363525 19.81668091 C15.34786109 21.59578682 16.03010907 23.37565456 16.71044922 25.15625 C17.75581183 27.89019974 18.80911299 30.62099767 19.86328125 33.3515625 C20.52911735 35.08575654 21.19449849 36.82012534 21.859375 38.5546875 C22.33271271 39.78117508 22.33271271 39.78117508 22.81561279 41.03244019 C25 46.76957574 25 46.76957574 25 49 C22.69 49 20.38 49 18 49 C17.16013916 47.06532058 16.32831973 45.12714871 15.5 43.1875 C15.0359375 42.10855469 14.571875 41.02960938 14.09375 39.91796875 C13 37 13 37 13 34 C6.73 34.33 0.46 34.66 -6 35 C-6.804375 37.124375 -7.60875 39.24875 -8.4375 41.4375 C-10.875 47.875 -10.875 47.875 -12 49 C-13.99958364 49.04080783 -16.00045254 49.04254356 -18 49 C-17.36695747 43.70004778 -15.67216262 39.18465199 -13.69140625 34.27734375 C-13.36462387 33.4542421 -13.03784149 32.63114044 -12.70115662 31.78309631 C-11.6605016 29.16564049 -10.6116427 26.5515637 -9.5625 23.9375 C-8.86078327 22.17664932 -8.15960583 20.41558363 -7.45898438 18.65429688 C-5.64587442 14.10022766 -3.82431007 9.54959148 -2 5 C-1.33317163 3.33339802 -0.66641649 1.66676672 0 0 Z M3 9 C1.99394407 11.60197202 0.99497475 14.20629362 0 16.8125 C-0.28617188 17.55048828 -0.57234375 18.28847656 -0.8671875 19.04882812 C-1.13789062 19.76103516 -1.40859375 20.47324219 -1.6875 21.20703125 C-1.93886719 21.8616333 -2.19023438 22.51623535 -2.44921875 23.19067383 C-3.14560906 25.16311143 -3.14560906 25.16311143 -3 28 C1.29 28 5.58 28 10 28 C8.11409966 21.62386075 6.14364744 15.29411375 4 9 C3.67 9 3.34 9 3 9 Z " fill="#000102" transform="translate(1306,363)"/>
<path d="M0 0 C1.91619141 0.00580078 1.91619141 0.00580078 3.87109375 0.01171875 C7.43083055 0.30177138 10.24650452 1.02607826 13.5625 2.3125 C12.9025 4.2925 12.2425 6.2725 11.5625 8.3125 C10.4178125 8.065 10.4178125 8.065 9.25 7.8125 C6.08280877 7.38305034 3.06500671 7.14711556 -0.125 7.0625 C-1.05699219 7.03671875 -1.98898437 7.0109375 -2.94921875 6.984375 C-5.46701663 7.11678264 -5.46701663 7.11678264 -7.25 8.6171875 C-8.72978954 10.43168483 -8.72978954 10.43168483 -8.75 13.6875 C-7.24231402 17.85158509 -6.6656987 18.11631434 -2.875 20 C-1.0711264 20.79080992 0.74146768 21.56204576 2.5625 22.3125 C11.80394617 26.48505931 11.80394617 26.48505931 13.5625 30.3125 C14.67015917 34.87396257 14.95984102 38.23967925 13.3125 42.6875 C10.16729828 47.40530258 8.08889076 48.74287422 2.5625 50.3125 C-0.65625 50.578125 -0.65625 50.578125 -3.9375 50.5625 C-5.56171875 50.57023437 -5.56171875 50.57023437 -7.21875 50.578125 C-10.57324256 50.30129794 -13.30056413 49.50302385 -16.4375 48.3125 C-16.4375 46.0025 -16.4375 43.6925 -16.4375 41.3125 C-15.32375 41.6425 -14.21 41.9725 -13.0625 42.3125 C-7.07272731 43.79132487 -1.20715725 44.25418347 4.6875 42.25 C6.88068049 40.33328899 6.88068049 40.33328899 7.25 36.875 C6.905316 33.19377294 6.905316 33.19377294 4.1875 31.125 C1.40750678 29.566619 -1.52204052 28.49674259 -4.5 27.375 C-9.59667914 25.42063431 -12.60601944 22.92890079 -15.75 18.4375 C-16.79390137 15.21089575 -16.78637144 12.68492397 -16.4375 9.3125 C-12.55724673 1.83941963 -8.24172454 -0.1078977 0 0 Z " fill="#000103" transform="translate(1123.4375,362.6875)"/>
<path d="M0 0 C1.98 0 3.96 0 6 0 C10.09122034 8.83703593 13.50069625 17.91526911 17 27 C20.3 18.09 23.6 9.18 27 0 C29.31 0 31.62 0 34 0 C33.35004452 5.30179481 31.69789767 9.92055282 29.796875 14.87109375 C29.47720764 15.7116481 29.15754028 16.55220245 28.82818604 17.41822815 C28.15191909 19.19018608 27.47263758 20.9609961 26.79052734 22.73071289 C25.75632802 25.42103854 24.73907725 28.11736892 23.72265625 30.81445312 C23.06092343 32.54206062 22.39819515 34.26928722 21.734375 35.99609375 C21.43521179 36.79421982 21.13604858 37.59234589 20.82781982 38.41465759 C16.14327561 50.4283622 16.14327561 50.4283622 11 53 C9.12620395 53.07033769 7.24998898 53.0843022 5.375 53.0625 C4.37210938 53.05347656 3.36921875 53.04445313 2.3359375 53.03515625 C1.56507812 53.02355469 0.79421875 53.01195312 0 53 C0 51.35 0 49.7 0 48 C0.60328125 47.9484375 1.2065625 47.896875 1.828125 47.84375 C5.31332055 47.34907708 8.04684659 46.95548957 10.59375 44.40234375 C12.21513993 41.64707641 13.22763831 39.26283183 12.64819336 36.04833984 C12.40206299 35.38012207 12.15593262 34.7119043 11.90234375 34.0234375 C11.61697754 33.24057373 11.33161133 32.45770996 11.03759766 31.65112305 C8.56647321 25.33725472 6.00388808 19.06240725 3.40820312 12.79882812 C2.97056641 11.72439453 2.53292969 10.64996094 2.08203125 9.54296875 C1.68218018 8.57383545 1.2823291 7.60470215 0.87036133 6.60620117 C0 4 0 4 0 0 Z " fill="#000204" transform="translate(1437,375)"/>
<path d="M0 0 C3.49896812 3.07485077 6.51781261 6.04648532 7.0625 10.8125 C7.0625 13.4525 7.0625 16.0925 7.0625 18.8125 C-1.1875 18.8125 -9.4375 18.8125 -17.9375 18.8125 C-15.05923199 27.45110517 -15.05923199 27.45110517 -10.9375 29.8125 C-8.36299363 30.09256294 -8.36299363 30.09256294 -5.5625 30 C-4.62664062 29.99355469 -3.69078125 29.98710937 -2.7265625 29.98046875 C-0.04181317 29.81878217 2.44306603 29.4078259 5.0625 28.8125 C5.0625 30.7925 5.0625 32.7725 5.0625 34.8125 C-1.07586102 37.46692639 -7.82887988 37.95416316 -14.28515625 36.16015625 C-18.4366094 34.35214021 -21.2316644 32.13365055 -23.25 27.92578125 C-25.74725886 20.24954804 -25.49603623 13.06082995 -21.9375 5.8125 C-16.83235774 -1.9275544 -8.53737218 -3.45127812 0 0 Z M-15.9375 7.8125 C-16.5975 9.7925 -17.2575 11.7725 -17.9375 13.8125 C-11.9975 13.8125 -6.0575 13.8125 0.0625 13.8125 C-0.32990905 8.01062464 -0.32990905 8.01062464 -3.1875 5.4375 C-8.56892457 2.2575673 -11.67268824 3.43242306 -15.9375 7.8125 Z " fill="#000102" transform="translate(1242.9375,376.1875)"/>
<path d="M0 0 C2.31 0 4.62 0 7 0 C7.29769287 0.78238037 7.59538574 1.56476074 7.90209961 2.37084961 C9.00510099 5.26587822 10.11049214 8.15997929 11.2175293 11.0534668 C11.93268815 12.92490826 12.6450647 14.79741217 13.35742188 16.66992188 C13.80537109 17.83974609 14.25332031 19.00957031 14.71484375 20.21484375 C15.12855225 21.29886475 15.54226074 22.38288574 15.96850586 23.49975586 C16.77114367 25.89914029 16.77114367 25.89914029 18 27 C18.40109985 25.82642944 18.40109985 25.82642944 18.81030273 24.62915039 C20.01635209 21.10589254 21.22686365 17.58418419 22.4375 14.0625 C22.85837891 12.83080078 23.27925781 11.59910156 23.71289062 10.33007812 C24.31713867 8.5753418 24.31713867 8.5753418 24.93359375 6.78515625 C25.30540771 5.70113525 25.67722168 4.61711426 26.06030273 3.50024414 C27 1 27 1 28 0 C30.33297433 -0.04092937 32.66705225 -0.04241723 35 0 C32.63438265 8.82160721 29.35709314 17.29812603 26.06689453 25.80566406 C25.12331666 28.25436847 24.19642208 30.70900142 23.26953125 33.1640625 C22.66247618 34.73997579 22.05443705 36.31551045 21.4453125 37.890625 C21.17429718 38.6157428 20.90328186 39.3408606 20.62405396 40.08795166 C18.62870988 45.16818557 16.10532154 50.44733923 11 53 C9.29297265 53.06996014 7.58331997 53.08440154 5.875 53.0625 C4.96492188 53.05347656 4.05484375 53.04445313 3.1171875 53.03515625 C2.41851563 53.02355469 1.71984375 53.01195312 1 53 C1 51.35 1 49.7 1 48 C2.258125 47.7525 3.51625 47.505 4.8125 47.25 C7.49713116 46.56224113 8.82031756 46.15649761 10.9375 44.3125 C13.04043114 39.73553222 13.29915858 36.05060596 11.92016602 31.20776367 C11.3812073 29.85449289 10.82493248 28.50802372 10.25390625 27.16796875 C9.96394272 26.45014725 9.67397919 25.73232574 9.37522888 24.99275208 C8.45292539 22.71773679 7.5087077 20.45266389 6.5625 18.1875 C5.62447313 15.90284608 4.69104891 13.6163918 3.76048279 11.32868958 C3.18155209 9.9097457 2.59744857 8.4928992 2.00770569 7.07841492 C0 2.21766387 0 2.21766387 0 0 Z " fill="#000102" transform="translate(1164,375)"/>
<path d="M0 0 C2.91258804 2.76695864 4.22484288 4.54952865 5.5 8.375 C5.5 11.675 5.5 14.975 5.5 18.375 C-2.42 18.705 -10.34 19.035 -18.5 19.375 C-17.20651065 25.90767352 -17.20651065 25.90767352 -14.7109375 28.296875 C-11.99971939 29.61895309 -10.13252112 29.70924429 -7.125 29.625 C-6.16207031 29.59921875 -5.19914063 29.5734375 -4.20703125 29.546875 C-1.25218131 29.35926548 1.60496301 29.00095394 4.5 28.375 C4.5 30.355 4.5 32.335 4.5 34.375 C-2.55807846 36.82998381 -9.08093903 37.38390324 -16.3125 35.25 C-20.90313175 32.54962838 -23.77848655 29.53954036 -25.5 24.375 C-26.72545114 8.5646713 -26.72545114 8.5646713 -21.5 2.375 C-15.14670243 -2.81136536 -7.45184956 -3.4597873 0 0 Z M-16.5 6.375 C-18.86980013 9.32877498 -18.86980013 9.32877498 -18.5 13.375 C-12.89 13.375 -7.28 13.375 -1.5 13.375 C-1.7715978 6.81881223 -1.7715978 6.81881223 -4.25 4.4375 C-9.11511829 2.14008303 -12.28367068 3.29821915 -16.5 6.375 Z " fill="#000102" transform="translate(895.5,376.625)"/>
<path d="M0 0 C2.69040181 2.16556069 3.20453698 3.5070012 4.22265625 6.7890625 C4.44970703 10.01879883 4.44970703 10.01879883 4.41796875 13.62109375 C4.41152344 14.91337891 4.40507813 16.20566406 4.3984375 17.53710938 C4.38172952 18.8919298 4.36479967 20.24674751 4.34765625 21.6015625 C4.33761628 22.97590501 4.32849221 24.35025453 4.3203125 25.72460938 C4.29676867 29.07960567 4.26388192 32.43424449 4.22265625 35.7890625 C1.84765625 35.9765625 1.84765625 35.9765625 -0.77734375 35.7890625 C-1.43734375 34.7990625 -2.09734375 33.8090625 -2.77734375 32.7890625 C-3.21046875 33.2634375 -3.64359375 33.7378125 -4.08984375 34.2265625 C-7.4287989 37.31818764 -11.26013239 37.06670845 -15.55859375 37.00390625 C-19.78317337 36.59483604 -21.92531697 34.75469285 -24.65234375 31.6640625 C-26.274716 27.51800009 -26.06488379 24.03317598 -24.77734375 19.7890625 C-21.41179209 15.92857677 -17.73466247 14.74854354 -12.77734375 13.7890625 C-9.10344445 13.64032164 -5.45166329 13.6694644 -1.77734375 13.7890625 C-2.76734375 11.1490625 -3.75734375 8.5090625 -4.77734375 5.7890625 C-10.47059325 4.60296885 -14.20301861 5.12654448 -19.77734375 6.7890625 C-20.43734375 5.1390625 -21.09734375 3.4890625 -21.77734375 1.7890625 C-15.61442201 -2.43694098 -6.83024557 -2.97802549 0 0 Z M-18.77734375 22.7890625 C-18.44734375 25.0990625 -18.11734375 27.4090625 -17.77734375 29.7890625 C-13.94962472 31.56288352 -12.22612676 31.91076637 -8.08984375 30.7890625 C-4.26854644 28.48186412 -3.22490472 26.96144412 -1.77734375 22.7890625 C-1.77734375 21.4690625 -1.77734375 20.1490625 -1.77734375 18.7890625 C-8.72965316 18.34371884 -13.3743041 18.11616334 -18.77734375 22.7890625 Z " fill="#000102" transform="translate(1427.77734375,376.2109375)"/>
<path d="M0 0 C4.55661866 4.32878773 7.15107314 8.42944248 7.703125 14.671875 C7.82460291 21.02921895 7.50328342 26.99315145 3.10546875 31.9453125 C-1.7120345 36.21398627 -6.06040301 36.68137335 -12.25390625 36.58984375 C-16.8441845 36.15077366 -19.63983918 34.28294754 -22.75 31 C-27.13681056 24.41978416 -27.23704598 18.0999883 -26.5 10.375 C-25.24200836 5.58408572 -23.29384072 3.03653393 -19.5 -0.125 C-13.39316799 -3.07949324 -6.03678914 -2.80279496 0 0 Z M-17.5 6.375 C-19.788175 9.74177601 -19.7986258 12.81210639 -19.8125 16.8125 C-19.83763672 18.48119141 -19.83763672 18.48119141 -19.86328125 20.18359375 C-19.3535742 24.66134275 -17.64341352 27.23158648 -14.5 30.375 C-11.44389661 30.94539258 -8.55968651 30.9087277 -5.5 30.375 C-2.74430553 28.19340855 -1.06411253 26.50322506 0.5 23.375 C0.64851844 21.44140414 0.72130833 19.50157903 0.75 17.5625 C0.77578125 16.52480469 0.8015625 15.48710937 0.828125 14.41796875 C0.45549327 10.96225308 -0.45518301 9.15673194 -2.5 6.375 C-7.9743419 2.30433551 -11.80400039 2.90786981 -17.5 6.375 Z " fill="#000102" transform="translate(617.5,376.625)"/>
<path d="M0 0 C4.46279226 2.15170341 7.2358803 4.90500786 10 9 C12.09101867 15.41245725 12.17412397 23.36135503 9.3125 29.5 C6.78195161 33.81628998 3.77108602 36.40963799 -1 38 C-6.9813407 38.60277077 -11.67915337 38.02557945 -17 35 C-21.64288429 30.35711571 -23.08559253 25.56719894 -23.3125 19.125 C-23.17209588 13.63272104 -22.39503361 8.56747603 -18.53515625 4.4296875 C-12.62132422 -0.63104896 -7.57526438 -0.71389926 0 0 Z M-13 8 C-16.89108498 13.41737013 -16.81192013 18.53956024 -16 25 C-14.7206251 28.19543403 -13.1543124 30.4228438 -10 32 C-4.20644114 32.52034052 -4.20644114 32.52034052 0.9375 30.1875 C4.97211808 25.90835961 4.39594415 20.77493392 4.33984375 15.18359375 C4.01795586 12.16820724 3.72236939 10.64348059 1.9375 8.25 C-3.25022562 4.27642293 -7.87411763 3.72843136 -13 8 Z " fill="#000102" transform="translate(790,375)"/>
<path d="M0 0 C4.02497305 1.99056402 6.38616374 4.82564003 8.13671875 8.83984375 C9.79808954 15.28754468 9.99936669 22.45689517 7.453125 28.640625 C4.81938544 32.99714008 1.70776039 35.74845487 -3.20703125 37.38671875 C-9.58546431 38.15414363 -15.04129902 37.39542046 -20.20703125 33.38671875 C-24.78443955 27.68480264 -25.88602925 21.5287718 -25.20703125 14.38671875 C-23.89905886 7.73601167 -21.80741839 4.19974829 -16.20703125 0.38671875 C-11.60214864 -1.91572256 -4.86638704 -1.35225268 0 0 Z M-15.20703125 7.38671875 C-18.752608 12.3994307 -18.9287934 17.45864564 -18.20703125 23.38671875 C-16.66474659 27.49947784 -15.87031718 28.94452813 -12.20703125 31.38671875 C-9.1156978 31.9887762 -6.29986558 31.98358152 -3.20703125 31.38671875 C0.87048644 28.15868391 2.03721317 25.61306891 2.79296875 20.51171875 C3.03330421 15.6831609 2.51653189 11.47206346 -0.20703125 7.38671875 C-5.6442585 3.68477679 -9.92574879 3.32419378 -15.20703125 7.38671875 Z " fill="#000102" transform="translate(1005.20703125,375.61328125)"/>
<path d="M0 0 C2.31 0 4.62 0 7 0 C7.01458252 0.83249268 7.02916504 1.66498535 7.04418945 2.52270508 C7.1052863 5.61489653 7.17944556 8.70642082 7.26245117 11.7980957 C7.31201319 13.7929063 7.34651133 15.78807257 7.38085938 17.78320312 C7.41630859 19.03681641 7.45175781 20.29042969 7.48828125 21.58203125 C7.51446533 22.73936768 7.54064941 23.8967041 7.56762695 25.08911133 C7.77812565 27.97024705 7.77812565 27.97024705 9.28588867 29.8737793 C12.27936534 31.84058002 15.60223784 31.63023008 19 31 C21.96858157 28.79259319 22.82865791 27.51402627 24 24 C24.14889747 22.15533558 24.2479101 20.30642725 24.31640625 18.45703125 C24.35830078 17.38388672 24.40019531 16.31074219 24.44335938 15.20507812 C24.48267578 14.08552734 24.52199219 12.96597656 24.5625 11.8125 C24.60568359 10.68134766 24.64886719 9.55019531 24.69335938 8.38476562 C24.79949099 5.58996646 24.90154385 2.79507838 25 0 C26.98 0 28.96 0 31 0 C31 12.21 31 24.42 31 37 C29.35 37 27.7 37 26 37 C26 36.01 26 35.02 26 34 C24.865625 34.66 23.73125 35.32 22.5625 36 C16.74095699 38.89531608 11.76632406 38.8708798 5.625 36.9375 C2.22296413 34.42647352 0.98699826 32.01633 0 28 C-0.35793373 23.18078316 -0.28256855 18.3914947 -0.1875 13.5625 C-0.17396484 12.25861328 -0.16042969 10.95472656 -0.14648438 9.61132812 C-0.11127334 6.40712378 -0.06202094 3.20377895 0 0 Z " fill="#000101" transform="translate(1022,375)"/>
<path d="M0 0 C1.98 0 3.96 0 6 0 C6.01981934 0.73114014 6.03963867 1.46228027 6.06005859 2.21557617 C6.15552914 5.53990269 6.26511966 8.86361986 6.375 12.1875 C6.4059375 13.33798828 6.436875 14.48847656 6.46875 15.67382812 C6.50742187 16.78564453 6.54609375 17.89746094 6.5859375 19.04296875 C6.6173584 20.06414795 6.6487793 21.08532715 6.68115234 22.13745117 C7.0391108 25.35112872 7.63367759 28.63367759 10 31 C14.23926951 31.52453436 17.8209677 31.73689518 21.5 29.4375 C24.93962871 23.84810334 24.28136498 15.9640827 24.5625 9.5625 C24.60568359 8.64017578 24.64886719 7.71785156 24.69335938 6.76757812 C24.79854931 4.51183837 24.90069107 2.25600501 25 0 C26.98 0 28.96 0 31 0 C31 12.21 31 24.42 31 37 C29.02 37 27.04 37 25 37 C24.67 36.34 24.34 35.68 24 35 C23.195625 35.495 22.39125 35.99 21.5625 36.5 C15.98784997 38.84722106 11.31644113 38.8150441 5.625 36.8125 C2.60782756 34.72921427 1.57802571 33.2945945 0 30 C-0.34057617 26.6784668 -0.34057617 26.6784668 -0.29296875 22.94921875 C-0.28872391 22.29041214 -0.28447906 21.63160553 -0.28010559 20.95283508 C-0.26341196 18.86396115 -0.22578058 16.77607861 -0.1875 14.6875 C-0.17244097 13.26498797 -0.15875469 11.8424607 -0.14648438 10.41992188 C-0.11354003 6.94629649 -0.06182408 3.47324513 0 0 Z " fill="#000001" transform="translate(633,375)"/>
<path d="M0 0 C2.31 0 4.62 0 7 0 C10.96 7.26 14.92 14.52 19 22 C25.28013763 11.1492397 25.28013763 11.1492397 31 0 C33.31 0 35.62 0 38 0 C37.42254613 3.96379568 36.21086661 6.65116167 34.09375 10.03515625 C26.13031595 23.31013102 21.94948268 33.43167779 23 49 C20.69 49 18.38 49 16 49 C16.10183594 47.95328125 16.20367188 46.9065625 16.30859375 45.828125 C17.02970333 29.80647989 9.29520228 17.78172132 1.36108398 4.49584961 C0 2 0 2 0 0 Z " fill="#000203" transform="translate(939,363)"/>
<path d="M0 0 C2.31 0 4.62 0 7 0 C7.32798584 0.63091553 7.65597168 1.26183105 7.99389648 1.91186523 C9.47316397 4.75475458 10.95529223 7.59614261 12.4375 10.4375 C12.95376953 11.43072266 13.47003906 12.42394531 14.00195312 13.44726562 C14.49501953 14.39150391 14.98808594 15.33574219 15.49609375 16.30859375 C15.95169678 17.18314209 16.4072998 18.05769043 16.87670898 18.95874023 C17.83905217 20.93191689 17.83905217 20.93191689 19 22 C22.96 14.74 26.92 7.48 31 0 C33.31 0 35.62 0 38 0 C36.75591339 4.10021332 35.24766054 7.5285487 32.99609375 11.16796875 C25.34599629 24.01764986 20.91568499 33.92624384 22 49 C20.02 49 18.04 49 16 49 C16.10183594 48.02546875 16.20367188 47.0509375 16.30859375 46.046875 C16.9388999 32.93050419 11.63599217 23.33594455 5.28491211 12.30957031 C4.94298828 11.715811 4.60106445 11.1220517 4.2487793 10.51029968 C3.29825027 8.87489273 2.33015438 7.24973295 1.36108398 5.62524414 C0 3 0 3 0 0 Z " fill="#000102" transform="translate(550,363)"/>
<path d="M0 0 C1.23492188 -0.01417969 2.46984375 -0.02835937 3.7421875 -0.04296875 C6.86586712 0.16984545 8.52561596 0.53512774 11.125 2.1875 C10.795 3.8375 10.465 5.4875 10.125 7.1875 C8.66126953 7.04441406 8.66126953 7.04441406 7.16796875 6.8984375 C5.89566406 6.78757812 4.62335938 6.67671875 3.3125 6.5625 C2.04792969 6.44648438 0.78335937 6.33046875 -0.51953125 6.2109375 C-4.01057941 5.87308196 -4.01057941 5.87308196 -6.875 8.1875 C-6.64143817 10.13160377 -6.64143817 10.13160377 -5.875 12.1875 C-4.32551522 13.41043763 -4.32551522 13.41043763 -2.34765625 14.22265625 C-1.63802734 14.55716797 -0.92839844 14.89167969 -0.19726562 15.23632812 C0.54845703 15.57083984 1.29417969 15.90535156 2.0625 16.25 C3.53338233 16.92090636 5.0010028 17.59902228 6.46484375 18.28515625 C7.11831787 18.57914307 7.77179199 18.87312988 8.44506836 19.17602539 C10.125 20.1875 10.125 20.1875 12.125 23.1875 C12.56956411 27.78132919 12.78088803 30.07006113 10.4375 34.0625 C6.36421137 37.80552199 2.55921056 38.46522556 -2.875 38.4375 C-4.3909375 38.44523437 -4.3909375 38.44523437 -5.9375 38.453125 C-8.9453976 38.18113426 -11.14806793 37.45071118 -13.875 36.1875 C-13.875 34.2075 -13.875 32.2275 -13.875 30.1875 C-12.99457031 30.35507812 -12.11414062 30.52265625 -11.20703125 30.6953125 C-10.04558594 30.89898437 -8.88414063 31.10265625 -7.6875 31.3125 C-5.96466797 31.62574219 -5.96466797 31.62574219 -4.20703125 31.9453125 C-0.70958024 32.19952348 1.08696156 31.88522736 4.125 30.1875 C5.01193303 28.14644361 5.01193303 28.14644361 5.125 26.1875 C0.74897016 23.07821564 -3.744258 20.71111952 -8.60546875 18.43359375 C-10.86590426 17.19249404 -12.32095069 16.23983178 -13.875 14.1875 C-14.55206156 11.12379644 -14.48648145 8.26158402 -13.875 5.1875 C-9.48662369 0.56815652 -6.19361717 0.03219136 0 0 Z " fill="#000102" transform="translate(1487.875,374.8125)"/>
<path d="M0 0 C1.65 0 3.3 0 5 0 C5 2.64 5 5.28 5 8 C8.3 8 11.6 8 15 8 C15 9.98 15 11.96 15 14 C11.7 14 8.4 14 5 14 C5.13814223 17.9794733 5.28679674 21.95848415 5.4375 25.9375 C5.47681641 27.07380859 5.51613281 28.21011719 5.55664062 29.38085938 C5.61948242 31.00024414 5.61948242 31.00024414 5.68359375 32.65234375 C5.73858032 34.15269165 5.73858032 34.15269165 5.79467773 35.68334961 C5.74671841 37.96069188 5.74671841 37.96069188 7 39 C8.34747084 39.23075082 9.70377565 39.41153063 11.0625 39.5625 C12.361875 39.706875 13.66125 39.85125 15 40 C15 41.65 15 43.3 15 45 C11.80367049 46.59816475 8.47700733 46.36705452 5 46 C1.7912016 44.67462675 0.42772702 43.86057932 -1.12060547 40.74536133 C-2.07985352 37.75070714 -2.22887581 35.39988807 -2.1953125 32.26171875 C-2.18886719 31.19501953 -2.18242188 30.12832031 -2.17578125 29.02929688 C-2.15902344 27.92650391 -2.14226562 26.82371094 -2.125 25.6875 C-2.11597656 24.56537109 -2.10695313 23.44324219 -2.09765625 22.28710938 C-2.07414486 19.52452091 -2.04128155 16.76237068 -2 14 C-3.65 14 -5.3 14 -7 14 C-6.75 11.625 -6.75 11.625 -6 9 C-5.360625 8.71125 -4.72125 8.4225 -4.0625 8.125 C-1.56660199 7.06414789 -1.56660199 7.06414789 -0.75 3.375 C-0.5025 2.26125 -0.255 1.1475 0 0 Z " fill="#000000" transform="translate(1148,367)"/>
<path d="M0 0 C2.31 0 4.62 0 7 0 C7 17.16 7 34.32 7 52 C4.69 52 2.38 52 0 52 C0 34.84 0 17.68 0 0 Z " fill="#000000" transform="translate(1203,360)"/>
<path d="M0 0 C1.65 0 3.3 0 5 0 C5.66 1.32 6.32 2.64 7 4 C7.928125 3.01 7.928125 3.01 8.875 2 C13.24240721 -0.79514062 16.95182061 -0.35288244 22 0 C21.67 1.98 21.34 3.96 21 6 C20.31292969 6.09796875 19.62585937 6.1959375 18.91796875 6.296875 C18.01691406 6.44640625 17.11585937 6.5959375 16.1875 6.75 C15.29417969 6.88921875 14.40085937 7.0284375 13.48046875 7.171875 C10.39623601 8.2015716 9.56365565 9.1785141 8 12 C7.21225082 15.29964815 6.83643724 18.47888978 6.68359375 21.86328125 C6.64169922 22.74951172 6.59980469 23.63574219 6.55664062 24.54882812 C6.49766602 25.9168457 6.49766602 25.9168457 6.4375 27.3125 C6.37272461 28.70952148 6.37272461 28.70952148 6.30664062 30.13476562 C6.20102775 32.42304454 6.09892248 34.71142372 6 37 C4.02 37 2.04 37 0 37 C0 24.79 0 12.58 0 0 Z " fill="#000000" transform="translate(1064,375)"/>
<path d="M0 0 C1.65 0 3.3 0 5 0 C5 1.65 5 3.3 5 5 C5.969375 4.175 6.93875 3.35 7.9375 2.5 C12.20252992 -0.60263447 15.89522901 -0.520895 21 0 C21 1.98 21 3.96 21 6 C20.39671875 6.02578125 19.7934375 6.0515625 19.171875 6.078125 C13.97639492 6.4109673 13.97639492 6.4109673 9.5 8.875 C7.07864161 12.30525772 6.84162869 15.23788683 6.68359375 19.32421875 C6.64169922 20.35224609 6.59980469 21.38027344 6.55664062 22.43945312 C6.51732422 23.51130859 6.47800781 24.58316406 6.4375 25.6875 C6.39431641 26.77095703 6.35113281 27.85441406 6.30664062 28.97070312 C6.20053162 31.64700791 6.09847639 34.32340526 6 37 C4.02 37 2.04 37 0 37 C0 24.79 0 12.58 0 0 Z " fill="#000000" transform="translate(675,375)"/>
<path d="M0 0 C1.98 0 3.96 0 6 0 C6 17.16 6 34.32 6 52 C4.02 52 2.04 52 0 52 C0 34.84 0 17.68 0 0 Z " fill="#000000" transform="translate(1336,360)"/>
<path d="M0 0 C0.94875 0.04125 1.8975 0.0825 2.875 0.125 C3.5 3.5 3.5 3.5 3.875 7.125 C1.875 9.125 1.875 9.125 -0.625 9.375 C-3.125 9.125 -3.125 9.125 -5.125 7.125 C-5.375 4.625 -5.375 4.625 -5.125 2.125 C-3.125 0.125 -3.125 0.125 0 0 Z " fill="#000102" transform="translate(1512.125,403.875)"/>
<path d="M0 0 C3 0.125 3 0.125 4 1.125 C4.04092937 3.45797433 4.04241723 5.79205225 4 8.125 C1.69 8.455 -0.62 8.785 -3 9.125 C-5 6.125 -5 6.125 -4.6875 3.5 C-3.68897505 0.05055016 -3.71397355 0.1547489 0 0 Z " fill="#000102" transform="translate(1262,403.875)"/>
<path d="M0 0 C1.4540625 0.0309375 1.4540625 0.0309375 2.9375 0.0625 C4.0625 2.3125 4.0625 2.3125 4.9375 5.0625 C4.0625 7.375 4.0625 7.375 2.9375 9.0625 C0.93795254 9.10504356 -1.06291636 9.10330783 -3.0625 9.0625 C-4.0625 8.0625 -4.0625 8.0625 -4.1875 4.5625 C-4.02748906 0.08219365 -4.02748906 0.08219365 0 0 Z " fill="#000102" transform="translate(913.0625,403.9375)"/>
</svg>
